<?xml version="1.0" encoding="utf-8"?>
<!-- Generator: Adobe Illustrator 18.0.0, SVG Export Plug-In . SVG Version: 6.00 Build 0)  -->
<!DOCTYPE svg PUBLIC "-//W3C//DTD SVG 1.1//EN" "http://www.w3.org/Graphics/SVG/1.1/DTD/svg11.dtd">
<svg version="1.1" id="Layer_1" xmlns="http://www.w3.org/2000/svg" xmlns:xlink="http://www.w3.org/1999/xlink" x="0px" y="0px"
	 viewBox="0 0 592.1 97.3" enable-background="new 0 0 592.1 97.3" xml:space="preserve">
<g>
	<g>
		<path fill="#FFFFFF" d="M96.3,47.8c-0.4-16.6-9.2-31.6-23.4-40c-1.5-0.9-3.1-1.8-4.7-2.5l-1.5,3.4L62.9,17
			c1.1,0.5,2.3,1.1,3.4,1.8C76.7,25,83.1,35.9,83.4,48.1c0.2,9.1-3.1,17.4-8.7,23.8C68.5,79,59.5,83.7,49.2,83.9
			c-9.4,0.2-18.3-3.2-25.1-9.7c-6.8-6.5-10.6-15.2-10.8-24.5c-0.2-10.4,5.2-22,13.5-29.4c0.3-0.3,0.6-0.6,1-0.9
			c4-3.3,8.2-5.3,12.2-5.8c-1.2,3.2-2.8,7.1-4.2,10.4c-6.4,15.5-10.6,26.2-9.3,32.9c1.9,10.4,10,17.7,20.7,18.5
			c6.1,0.5,11.7-1.4,16-4.8c2.9-2.3,5.2-5.4,6.5-9c3.8-10.8-1.7-18.5-7.6-24.7l-5.3-5.5l-1.7,3.9l-3.9,8.8l1.5,1.6
			c5.4,5.7,5.9,8.3,4.7,11.5c-0.1,0.4-0.3,0.8-0.5,1.1c-1.8,3.1-5.5,4.4-8.8,4.1c-1.8-0.1-7.7-1.1-9-8c-0.6-3.7,5.4-18,8.6-25.6
			c6.2-14.8,8-19.7,5.8-24c-1-1.9-2.7-3.2-4.8-3.7C39.1-1,28.8,2,19.7,9.5c-1.8,1.5-3.5,3.1-5.1,4.8c-9,9.8-14.4,23.2-14.1,35.8
			C0.8,62.8,6,74.7,15.3,83.6c9,8.6,20.7,13.3,33.1,13.3c0.4,0,0.8,0,1.2,0c11.6-0.3,22.2-4.7,30.3-11.9
			C90.2,75.9,96.6,62.5,96.3,47.8z"/>
		<g>
			<g>
				<path fill="#FFFFFF" d="M135,92.9h-18.2V4.4h18.1c7.6,0,14.3,4,14.3,15.5v16.1c0,5.7-2,9.8-6.9,11.7c5,2.1,7,6.2,7,11.8v17.8
					C149.4,89.1,142.5,92.9,135,92.9z M137.9,20.2c0-3.5-1.3-5-3.9-5h-5.6v28h5.1c2.8,0,4.4-1.7,4.4-5.3V20.2z M138.1,58.4
					c0-3.5-1.7-5.4-4.4-5.4h-5.2v29.2h5.7c2.5,0,3.9-1.6,3.9-5.1V58.4z"/>
				<path fill="#FFFFFF" d="M164.5,92.9V4.4h28.3v10.9h-16.7V42h11.7v10.5h-11.7v29.4h16.7v11H164.5z"/>
				<path fill="#FFFFFF" d="M233.3,92.9l-12.5-42.4l-3.6-13.1v55.5h-10.5V4.4h10.9l11.2,42.5l3.3,13.3V4.4h10.4v88.5H233.3z"/>
				<path fill="#FFFFFF" d="M276,92.9h-17.5V4.4H276c10,0,16.2,6.1,16.2,18.5v51.8C292.2,87.2,285.9,92.9,276,92.9z M280.5,22.5
					c0-4.8-1.5-7-5.2-7h-5.2V82h5.2c3.7,0,5.2-2.3,5.2-7V22.5z"/>
				<path fill="#FFFFFF" d="M327.2,57.7v35.2h-11.7V57.7L302.9,4.4h11.7l7.4,38l7.4-38h11.3L327.2,57.7z"/>
				<path fill="#FFFFFF" d="M391.9,92.9h-10.2l-5.8-53l-6.6,53h-10.1L349,4.4h11.4l4.9,59.6l6.9-59.6h9l5.8,59.6L393,4.4h10.6
					L391.9,92.9z"/>
				<path fill="#FFFFFF" d="M431.8,94.2c-10,0-17.1-7.4-17.1-18.1v-55c0-10.5,7.2-18.1,17.1-18.1c10,0,17.1,7.6,17.1,18.1v55
					C448.9,86.8,441.7,94.2,431.8,94.2z M437.2,20.1c0-3.3-2-5.7-5.4-5.7c-3.5,0-5.3,2.4-5.3,5.7v57.1c0,3.5,1.9,5.7,5.3,5.7
					c3.5,0,5.4-2.3,5.4-5.7V20.1z"/>
				<path fill="#FFFFFF" d="M491.9,93.3c-4.3,0-6-5.3-6-11.7V60.5c0-3.1-1.6-5.4-4.6-5.4h-5.2v37.9h-11.7V4.4h17.9
					c7.6,0,14.6,4.1,14.6,15.7v18.6c0,5.3-2.3,9.2-6.8,11.3c4.5,2.1,7,6.1,7,11.3v19.7c0,4,0.7,6.8,2,9v3.3H491.9z M485.4,20.2
					c0-3.5-1.2-5-3.7-5h-5.6V45h5c2.8,0,4.3-1.7,4.3-5.4V20.2z"/>
				<path fill="#FFFFFF" d="M535.5,92.9l-7.3-37.1l-4,13.5v23.5h-11.6V4.4h11.6v42.5l11.4-42.5h11.3l-11,37.7l11.4,50.7H535.5z"/>
				<path fill="#FFFFFF" d="M574.5,94.2c-10.5,0-16.9-6.9-16.9-18.1v-9.6h10.6v10c0,4.6,2,7.4,5.8,7.4c4.1,0,6.1-2.7,6.1-7
					c0-8.2-3.2-14.9-9.3-23.9c-5.7-8.1-12.7-20.1-12.7-30.3c0-11.2,5.4-19.7,17-19.7c9.6,0,15.8,6.9,15.8,18.1v10.1h-10.5V20.8
					c0-4.4-1.9-7-5.3-7c-3.3,0-5.7,2.3-5.7,6.4c0,9.8,3.3,14.5,10,24.6c6.8,10,12.1,19.9,12.1,30.2
					C591.6,88.8,583.1,94.2,574.5,94.2z"/>
			</g>
		</g>
	</g>
</g>
</svg>
