<svg width="32" height="32" viewBox="0 0 32 32" fill="none" xmlns="http://www.w3.org/2000/svg">
<path fill-rule="evenodd" clip-rule="evenodd" d="M3.34302 16.0989C4.12773 16.0989 4.73217 16.3322 5.27298 16.7882L4.5519 17.785C4.19136 17.5093 3.86263 17.382 3.48088 17.382C2.75979 17.382 2.34623 17.8698 2.34623 19.1317C2.34623 20.383 2.79161 20.7647 3.45967 20.7647C3.86263 20.7647 4.13834 20.6375 4.5413 20.383L5.27298 21.4222C4.75338 21.8358 4.14894 22.0903 3.37484 22.0903C1.64636 22.0903 0.585938 20.9238 0.585938 19.1423C0.585938 17.3502 1.65696 16.0989 3.34302 16.0989ZM7.47871 22.0902C6.50312 22.0902 5.9305 21.5069 5.9305 20.4783V14.0416L7.60596 13.8613V20.4147C7.60596 20.648 7.6908 20.7647 7.89228 20.7647C8.00892 20.7647 8.09376 20.7434 8.16798 20.7116L8.49672 21.8993C8.24221 22.0053 7.88167 22.0902 7.47871 22.0902ZM10.0659 13.3099C10.6491 13.3099 11.0627 13.7235 11.0627 14.2643C11.0627 14.8051 10.6491 15.2187 10.0659 15.2187C9.48269 15.2187 9.07973 14.8051 9.07973 14.2643C9.07973 13.7235 9.48269 13.3099 10.0659 13.3099ZM10.9038 16.2791V21.2737C10.9038 23.1082 9.96 23.7763 8.64508 24.2534L8.08305 23.034C8.80414 22.7052 9.22831 22.4083 9.22831 21.3797V16.2791H10.9038ZM15.5908 13.8613L17.2663 14.0416V21.9099H15.7817L15.6969 21.2524C15.3787 21.719 14.8591 22.0902 14.0956 22.0902C12.6641 22.0902 11.9536 20.9025 11.9536 19.0786C11.9536 17.3395 12.8337 16.0988 14.2865 16.0988C14.7955 16.0988 15.2515 16.3003 15.5908 16.629V13.8613ZM14.6259 20.8601C15.0182 20.8601 15.3257 20.648 15.5908 20.2344V17.7955C15.3363 17.4986 15.0818 17.3183 14.7213 17.3183C14.1169 17.3183 13.6927 17.8273 13.6927 19.0892C13.6927 20.4889 14.0744 20.8601 14.6259 20.8601ZM21.0202 16.0989C22.7381 16.0989 23.7773 17.2017 23.7773 19.0999C23.7773 20.9026 22.7381 22.0903 21.0202 22.0903C19.313 22.0903 18.2631 20.9874 18.2631 19.0893C18.2631 17.2866 19.3024 16.0989 21.0202 16.0989ZM21.0202 17.3288C20.3416 17.3288 20.0022 17.8697 20.0022 19.0891C20.0022 20.3404 20.3416 20.86 21.0202 20.86C21.6989 20.86 22.0382 20.3192 22.0382 19.0997C22.0382 17.8485 21.6989 17.3288 21.0202 17.3288ZM27.2131 16.0989C27.9978 16.0989 28.6023 16.3322 29.1431 16.7882L28.422 17.785C28.0614 17.5093 27.7327 17.382 27.351 17.382C26.6299 17.382 26.2163 17.8698 26.2163 19.1317C26.2163 20.383 26.6617 20.7647 27.3297 20.7647C27.7327 20.7647 28.0084 20.6375 28.4114 20.383L29.1431 21.4222C28.6235 21.8358 28.019 22.0903 27.2449 22.0903C25.5164 22.0903 24.456 20.9238 24.456 19.1423C24.456 17.3502 25.527 16.0989 27.2131 16.0989Z" fill="black"/>
<path d="M17.1466 7.29891V13.1106L15.8477 12.9641V6H27.3694L31.7541 10.0006V26.0813H15.8477V22.772H17.1466V24.7824H30.4552V10.5738L26.8659 7.29891H17.1466Z" fill="black"/>
</svg>
