<?xml version="1.0" encoding="utf-8"?>
<!-- Generator: Adobe Illustrator 18.1.0, SVG Export Plug-In . SVG Version: 6.00 Build 0)  -->
<svg version="1.1" id="Layer_1" xmlns="http://www.w3.org/2000/svg" xmlns:xlink="http://www.w3.org/1999/xlink" x="0px" y="0px"
	 viewBox="0 0 341.1 85.8" enable-background="new 0 0 341.1 85.8" xml:space="preserve">
<g>
	<path fill="#000000" d="M86.7,22.2L52.4,2.4c-3.2-1.9-7.2-1.9-10.4,0L7.8,22.2c-3.2,1.9-5.2,5.3-5.2,9v23c0,3.7,2,7.2,5.2,9
		L42,83.1c3.2,1.9,7.2,1.9,10.4,0l34.3-19.8c3.2-1.9,5.2-5.3,5.2-9v-23C91.9,27.5,89.9,24,86.7,22.2z M67.6,41.3
		C66.5,47,65.5,52,61.9,52c-5.2,0-5-11.7-7.2-19.2c-2.5,9.3-1.8,25.4-7.5,25.4c-5.5,0-5.1-12.9-7.5-18c-2,3.4-2.3,11.8-7.2,11.8
		c-3.9,0-4.9-3.7-5.7-7.5c-0.5-2.7,3.5-3.5,4-0.8c0.7,3.5,1.2,4.1,1.5,4.2c2-2,2.2-12.2,7.5-12.2c5.1,0,5,10.7,7.2,17.2
		c2.6-9,1.8-25.5,7.5-25.5c5.4,0,5,12.8,7.4,19.6c0.6-1.6,1.2-4.6,1.6-6.4C64.1,37.9,68.1,38.7,67.6,41.3z"/>
	<g>
		<path fill="#000000" d="M130.2,44.1c0,7.5-4.5,12.3-11.1,12.3c-1.8,0-3.6-0.4-5.3-1.4v8.4h-6.4V35.8c2.5-2.1,6.6-3.6,10.9-3.6
			C125.7,32.2,130.2,36.5,130.2,44.1z M113.8,38.7v11.5c1.2,0.9,2.4,1.3,4.1,1.3c3.7,0,5.8-2.4,5.8-7.4c0-4.6-1.6-6.8-5.3-6.8
			C116.6,37.3,115.1,37.8,113.8,38.7z"/>
		<path fill="#000000" d="M136.7,30.4c-2.3,0-4.1-1.8-4.1-4.1c0-2.3,1.8-4.2,4.1-4.2c2.3,0,4.1,1.9,4.1,4.2
			C140.8,28.5,139,30.4,136.7,30.4z M139.9,56h-6.4V33.6h6.4V56z"/>
		<path fill="#000000" d="M166.5,42.1V56h-6.4V42c0-2.9-1.5-4.6-4.3-4.6c-1.7,0-3.2,0.6-4.7,1.5V56h-6.4V35.8
			c3.3-2.4,7.3-3.6,11.7-3.6C163.7,32.2,166.5,36.6,166.5,42.1z"/>
		<path fill="#000000" d="M191.8,35.8v16.6c0,7.4-4.6,11.4-11.7,11.4c-2.5,0-4.8-0.4-6.5-1.3v-4.9c1.7,0.8,3.7,1.5,5.9,1.5
			c4.7,0,6-2.2,6-6v-0.3c-1.8,1.5-3.8,2.1-6.4,2.1c-5.7,0-10-4.2-10-11c0-6.4,4.6-11.6,12.3-11.6C185.6,32.2,188.9,33.5,191.8,35.8z
			 M185.5,48.1v-9.6c-1-0.9-2.3-1.4-4.1-1.4c-3.5,0-5.7,2.4-5.7,6.4c0,4.4,2.1,6.3,5.2,6.3C182.6,49.9,184,49.6,185.5,48.1z"/>
		<path fill="#000000" d="M218,44.3c0,6.9-4.2,12.1-11.7,12.1c-7.6,0-11.8-5.2-11.8-12.1c0-6.9,4.2-12.1,11.8-12.1
			C213.8,32.2,218,37.4,218,44.3z M206.3,51.4c3.5,0,5.2-2.5,5.2-7.1c0-4.6-1.7-7.1-5.2-7.1c-3.6,0-5.3,2.5-5.3,7.1
			C201,48.9,202.7,51.4,206.3,51.4z"/>
		<path fill="#000000" d="M255.5,42.1V56h-6.4V42c0-2.9-0.8-4.6-3.7-4.6c-1.6,0-2.8,0.5-4.1,1.4V56h-6.4V38.7
			c-0.7-0.7-2.1-1.3-3.7-1.3c-1.7,0-2.8,0.5-4.1,1.5V56h-6.4V35.8c3.1-2.4,6.5-3.6,10.6-3.6c2.5,0,4.8,0.8,6.7,2c2.3-1.2,5-2,7.8-2
			C253.5,32.2,255.5,36.6,255.5,42.1z"/>
		<path fill="#000000" d="M280.5,42.8c0,1.2-0.1,1.8-0.2,2.9h-15.8c0.6,3.8,3.1,5.8,7.2,5.8c2.9,0,4.9-0.7,7.3-2.2v5
			c-2,1.4-4.5,2.1-7.9,2.1c-8,0-12.9-5-12.9-12.8c0-6.2,4.4-11.4,11.8-11.4C276,32.2,280.5,36.4,280.5,42.8z M264.5,41.8h10.5
			c-0.3-3.3-2.2-5-5-5C267,36.8,265,38.2,264.5,41.8z"/>
		<path fill="#000000" d="M299.2,38.4h-7.4v9.1c0,2.5,1.1,3.8,3.3,3.8c1.5,0,2.9-0.3,3.8-0.9v4.9c-1.1,0.6-3.2,1.1-5.5,1.1
			c-4.1,0-7.9-2-7.9-8.8v-9.2h-3.8v-4.8h3.8v-6.2l6.4-1.6v7.8h7.4V38.4z"/>
		<path fill="#000000" d="M322.9,42.8c0,1.2-0.1,1.8-0.2,2.9h-15.8c0.6,3.8,3.1,5.8,7.2,5.8c2.9,0,4.9-0.7,7.3-2.2v5
			c-2,1.4-4.5,2.1-7.9,2.1c-8,0-12.9-5-12.9-12.8c0-6.2,4.4-11.4,11.8-11.4C318.4,32.2,322.9,36.4,322.9,42.8z M306.9,41.8h10.5
			c-0.3-3.3-2.2-5-5-5C309.4,36.8,307.4,38.2,306.9,41.8z"/>
		<path fill="#000000" d="M341.1,32.9v5.6c-1.2-0.5-2.5-0.9-4.1-0.9c-1.7,0-3.3,0.4-4.7,1.4v17h-6.4V35.8c2.3-2.2,6.2-3.6,10.2-3.6
			C337.8,32.2,339.4,32.5,341.1,32.9z"/>
	</g>
</g>
</svg>
