<?xml version="1.0" encoding="UTF-8" standalone="no"?>
<svg
   xmlns:dc="http://purl.org/dc/elements/1.1/"
   xmlns:cc="http://creativecommons.org/ns#"
   xmlns:rdf="http://www.w3.org/1999/02/22-rdf-syntax-ns#"
   xmlns:svg="http://www.w3.org/2000/svg"
   xmlns="http://www.w3.org/2000/svg"
   viewBox="0 0 400 117.33333"
   height="117.33333"
   width="400"
   xml:space="preserve"
   id="svg2"
   version="1.1"><metadata
     id="metadata8"><rdf:RDF><cc:Work
         rdf:about=""><dc:format>image/svg+xml</dc:format><dc:type
           rdf:resource="http://purl.org/dc/dcmitype/StillImage" /></cc:Work></rdf:RDF></metadata><defs
     id="defs6"><clipPath
       id="clipPath20"
       clipPathUnits="userSpaceOnUse"><path
         id="path18"
         d="M 0,0 H 2995.73 V 876.352 H 0 Z" /></clipPath><clipPath
       id="clipPath76"
       clipPathUnits="userSpaceOnUse"><path
         id="path74"
         d="M 0,0 H 2995.73 V 876.352 H 0 Z" /></clipPath><clipPath
       id="clipPath98"
       clipPathUnits="userSpaceOnUse"><path
         id="path96"
         d="M 0,0 H 2995.73 V 876.352 H 0 Z" /></clipPath></defs><g
     transform="matrix(1.3333333,0,0,-1.3333333,0,117.33333)"
     id="g10"><g
       transform="scale(0.1)"
       id="g12"><g
         id="g14"><g
           clip-path="url(#clipPath20)"
           id="g16"><path
             id="path22"
             style="fill:#231f20;fill-opacity:1;fill-rule:nonzero;stroke:none"
             d="m 29.2891,30.75 c -15.9688,0 -26.10941,7.75 -27.12894,20.6992 -0.25,3.3516 -0.05078,7.3125 0.55859,10.8789 L 14.1016,122.199 H 0.378906 c -0.109375,0 -0.21875,0.051 -0.2890622,0.129 C 0.0117188,122.41 -0.0117188,122.531 0,122.641 l 2.53125,13.57 c 0.03906,0.18 0.19922,0.309 0.37891,0.309 H 16.9688 l 5.9023,30.839 c 0.0273,0.192 0.1797,0.313 0.3672,0.313 h 15.1601 c 0.1211,0 0.2305,-0.043 0.3008,-0.133 0.0625,-0.09 0.0899,-0.211 0.0703,-0.309 L 32.9219,136.52 H 65 c 0.1094,0 0.2109,-0.04 0.2891,-0.141 0.0703,-0.078 0.1015,-0.199 0.082,-0.301 L 62.8398,122.5 c -0.0312,-0.172 -0.1914,-0.301 -0.371,-0.301 H 30.2383 L 18.9688,63 c -0.1485,-1.7188 -0.379,-5.0391 -0.1993,-7.4805 0.6719,-8.4687 8.3203,-10.25 14.6289,-10.25 4.6797,0 9.5821,1.0703 14.5704,3.1797 0.1406,0.0508 0.2812,0.0196 0.3828,-0.0586 0.1093,-0.0898 0.1679,-0.2304 0.1367,-0.3594 L 45.8008,34.0391 C 45.7812,33.9219 45.6914,33.8203 45.5703,33.7695 40.5391,31.6484 35.6719,30.75 29.2891,30.75" /></g></g><path
         id="path24"
         style="fill:#231f20;fill-opacity:1;fill-rule:nonzero;stroke:none"
         d="m 159.449,32.5508 h -15.371 c -0.109,0 -0.219,0.039 -0.289,0.1406 -0.07,0.0781 -0.098,0.1875 -0.07,0.3086 l 10.992,58.4883 c 0.687,3.1836 0.969,7.9023 0.687,11.4807 -1.039,13.293 -10.187,21.222 -24.476,21.222 -16.121,0 -30.57,-13.902 -34.3517,-33.0426 L 85.5508,32.8516 C 85.5195,32.6719 85.3711,32.5508 85.1797,32.5508 H 69.8086 c -0.1094,0 -0.2188,0.039 -0.2774,0.1406 -0.082,0.0781 -0.1093,0.1875 -0.082,0.3086 l 27.7305,145.738 c 0.0312,0.184 0.1914,0.313 0.3594,0.313 H 112.91 c 0.121,0 0.231,-0.051 0.301,-0.129 0.07,-0.094 0.098,-0.211 0.078,-0.32 L 102.23,120.75 c 7.532,9.078 17.489,17.969 33.809,17.969 20.223,0 34.281,-12.668 35.813,-32.289 0.308,-4.059 -0.133,-9.3089 -1.352,-16.0784 l -10.68,-57.5 c -0.031,-0.1719 -0.191,-0.3008 -0.371,-0.3008" /><path
         id="path26"
         style="fill:#231f20;fill-opacity:1;fill-rule:nonzero;stroke:none"
         d="m 761.379,32.5508 h -24.16 c -0.11,0 -0.207,0.039 -0.278,0.1406 -0.082,0.0781 -0.113,0.1875 -0.082,0.3086 l 11.192,58.4883 c 0.558,3.582 0.777,7.7031 0.57,10.4807 -0.82,10.472 -7.25,16.23 -18.101,16.23 -12.68,0 -22.692,-10.219 -25.52,-26.0388 L 693.672,32.8516 c -0.031,-0.1797 -0.192,-0.3008 -0.371,-0.3008 h -24.153 c -0.117,0 -0.226,0.039 -0.296,0.1406 -0.071,0.0781 -0.102,0.1875 -0.082,0.3086 l 11.21,58.4883 c 0.551,3.582 0.782,7.7031 0.551,10.4807 -0.82,10.472 -7.242,16.23 -18.082,16.23 -12.808,0 -22.66,-9.988 -25.73,-26.0506 L 625.578,32.8516 c -0.027,-0.1719 -0.18,-0.3008 -0.359,-0.3008 h -24.36 c -0.109,0 -0.218,0.039 -0.289,0.1406 -0.07,0.0781 -0.101,0.1875 -0.082,0.3086 l 19.91,105.41 c 0.032,0.18 0.192,0.309 0.372,0.309 h 24.16 c 0.109,0 0.218,-0.059 0.289,-0.141 0.07,-0.078 0.101,-0.199 0.082,-0.308 l -2.321,-12.11 c 7.34,7.789 16.008,14.762 29.122,14.762 14.16,0 25.25,-7.551 30.5,-20.742 9.296,13.57 22.347,20.742 37.789,20.742 19.238,0 32.66,-12.524 34.179,-31.902 0.418,-5.45 -0.769,-12.1098 -1.82,-18.0083 l -0.121,-0.6601 -10.891,-57.5 c -0.027,-0.1797 -0.179,-0.3008 -0.359,-0.3008" /><path
         id="path28"
         style="fill:#231f20;fill-opacity:1;fill-rule:nonzero;stroke:none"
         d="m 991.238,32.5508 h -24.16 c -0.109,0 -0.219,0.039 -0.289,0.1406 -0.07,0.0781 -0.098,0.1875 -0.078,0.3086 l 11.008,58.4883 c 0.703,3.2734 1,7.3906 0.75,10.4807 -0.797,10.312 -7.828,16.23 -19.289,16.23 -13.078,0 -23.489,-10.219 -26.508,-26.0506 L 921.531,32.8516 c -0.031,-0.1719 -0.191,-0.3008 -0.359,-0.3008 h -24.363 c -0.118,0 -0.219,0.039 -0.289,0.1406 -0.071,0.0781 -0.098,0.1875 -0.079,0.3086 l 19.911,105.41 c 0.027,0.18 0.187,0.309 0.359,0.309 h 24.16 c 0.109,0 0.219,-0.059 0.289,-0.141 0.07,-0.078 0.102,-0.199 0.07,-0.308 l -2.3,-12.129 c 6.859,7.07 16.441,14.781 30.32,14.781 19.621,0 33.27,-12.524 34.79,-31.902 0.45,-5.731 -0.67,-12.6411 -1.75,-18.6684 l -10.669,-57.5 c -0.043,-0.1719 -0.199,-0.3008 -0.383,-0.3008" /><path
         id="path30"
         style="fill:#231f20;fill-opacity:1;fill-rule:nonzero;stroke:none"
         d="m 1596.51,30.1484 c -28.64,0 -50.18,19.4297 -52.35,47.2618 -1.32,16.8515 4.07,32.7618 15.18,44.8088 10.95,11.883 26.46,18.703 42.55,18.703 24.34,0 37.86,-13.133 44.91,-24.141 0.11,-0.172 0.07,-0.39 -0.1,-0.5 L 1628.94,103.5 c -0.08,-0.07 -0.19,-0.07 -0.28,-0.07 -0.1,0.019 -0.19,0.082 -0.25,0.148 -5.68,8.121 -12.87,15.621 -26.88,15.621 -8.02,0 -16.07,-3.738 -22.07,-10.258 -7.52,-8.382 -11.31,-19.7808 -10.41,-31.2691 1.18,-15.0625 12.38,-26 26.64,-26 9.54,0 17.01,3.3789 25.77,11.6679 0.07,0.0704 0.14,0.129 0.27,0.1094 0.11,-0.0078 0.21,-0.0508 0.27,-0.1289 l 14.01,-15.7695 c 0.14,-0.1602 0.13,-0.3789 -0.02,-0.5196 -8.52,-8.3515 -19.88,-16.8828 -39.48,-16.8828" /><path
         id="path32"
         style="fill:#231f20;fill-opacity:1;fill-rule:nonzero;stroke:none"
         d="m 1674.7,32.5508 h -24.15 c -0.12,0 -0.22,0.039 -0.29,0.1406 -0.07,0.0781 -0.1,0.1875 -0.08,0.3086 l 27.74,145.738 c 0.02,0.184 0.18,0.313 0.37,0.313 h 24.16 c 0.1,0 0.21,-0.051 0.28,-0.129 0.08,-0.094 0.11,-0.211 0.08,-0.32 L 1675.07,32.8516 c -0.03,-0.1797 -0.18,-0.3008 -0.37,-0.3008" /><path
         id="path34"
         style="fill:#231f20;fill-opacity:1;fill-rule:nonzero;stroke:none"
         d="m 1863.27,30.3398 c -19.74,0 -33.47,12.5313 -34.99,31.9102 -0.45,5.75 0.66,12.6484 1.74,18.6602 l 10.88,57.4998 c 0.03,0.18 0.19,0.309 0.37,0.309 h 24.15 c 0.12,0 0.23,-0.059 0.3,-0.141 0.07,-0.078 0.1,-0.199 0.08,-0.308 l -11.21,-58.4888 c -0.55,-3.2812 -0.79,-7.5898 -0.55,-10.4921 0.8,-10.3086 7.75,-16.2188 19.08,-16.2188 13.1,0 23.51,10.2188 26.52,26.0391 l 11.34,59.3006 c 0.03,0.18 0.19,0.309 0.37,0.309 h 24.15 c 0.12,0 0.23,-0.059 0.3,-0.141 0.06,-0.078 0.09,-0.199 0.07,-0.308 L 1915.96,32.8516 c -0.03,-0.1797 -0.18,-0.3008 -0.36,-0.3008 h -24.16 c -0.12,0 -0.21,0.039 -0.29,0.1406 -0.07,0.0781 -0.1,0.1875 -0.08,0.3086 l 2.29,12.3008 c -6.76,-7.1719 -16.24,-14.961 -30.09,-14.961" /><path
         id="path36"
         style="fill:#231f20;fill-opacity:1;fill-rule:nonzero;stroke:none"
         d="m 2167.5,30.1484 c -22.9,0 -47.29,15.6211 -49.62,45.4727 -1.3,16.5977 4.3,32.9999 15.37,44.9999 10.59,11.5 25.47,18.098 40.79,18.098 25.13,0 37.94,-15.25 43.34,-24.34 0.11,-0.18 0.06,-0.391 -0.12,-0.508 l -11.77,-7.793 c -0.16,-0.109 -0.4,-0.058 -0.51,0.113 -5.75,8.481 -14.46,18.2 -30.87,18.2 -10.25,0 -20.34,-4.68 -27.66,-12.852 -8.71,-9.449 -13.11,-22.3671 -12.08,-35.4609 1.62,-20.75 17.75,-31.5976 32.86,-31.5976 10.72,0 19.74,4.1406 29.23,13.4687 0.07,0.0703 0.17,0.1094 0.26,0.1094 0.1,0 0.2,-0.0469 0.27,-0.1172 l 9.76,-9.9805 c 0.15,-0.1523 0.15,-0.3711 0,-0.5312 -11.58,-11.7891 -24.05,-17.2813 -39.25,-17.2813" /><path
         id="path38"
         style="fill:#231f20;fill-opacity:1;fill-rule:nonzero;stroke:none"
         d="m 2493.45,32.5508 h -15.37 c -0.12,0 -0.22,0.039 -0.29,0.1406 -0.07,0.0781 -0.1,0.1875 -0.08,0.3086 l 11.2,58.4883 c 0.55,3.4609 0.74,8.1914 0.48,11.4807 -1.04,13.293 -9.51,21.222 -22.67,21.222 -15.05,0 -29.14,-14.203 -32.76,-33.0426 l -10.81,-58.2968 c -0.04,-0.1719 -0.2,-0.3008 -0.37,-0.3008 h -15.37 c -0.12,0 -0.23,0.039 -0.3,0.1406 -0.06,0.0781 -0.09,0.1875 -0.07,0.3086 l 10.99,58.4883 c 0.69,3.1836 0.97,7.9023 0.69,11.4807 -1.02,13.101 -9.79,21.222 -22.88,21.222 -15.04,0 -29.13,-14.203 -32.76,-33.0426 l -11.01,-58.2968 c -0.03,-0.1797 -0.19,-0.3008 -0.37,-0.3008 h -15.38 c -0.1,0 -0.21,0.039 -0.28,0.1406 -0.08,0.0781 -0.11,0.1875 -0.08,0.3086 l 19.48,103.211 c 0.03,0.187 0.19,0.309 0.37,0.309 h 15.37 c 0.11,0 0.21,-0.04 0.29,-0.141 0.07,-0.078 0.1,-0.188 0.08,-0.301 l -2.81,-15.34 c 8.96,10.84 18.02,17.981 32.22,17.981 14.91,0 26.54,-8.52 31.27,-22.809 8.8,14.918 22.47,22.809 39.6,22.809 19.08,0 32.91,-12.981 34.42,-32.289 0.31,-3.961 -0.41,-8.5784 -1.1,-13.0394 -0.15,-1.0195 -0.31,-2.0195 -0.45,-3.0195 l -10.89,-57.5195 c -0.03,-0.1797 -0.18,-0.3008 -0.36,-0.3008" /><path
         id="path40"
         style="fill:#231f20;fill-opacity:1;fill-rule:nonzero;stroke:none"
         d="m 2840.34,32.5508 h -15.37 c -0.12,0 -0.23,0.039 -0.3,0.1406 -0.07,0.0781 -0.09,0.1875 -0.08,0.3086 l 11,58.4883 c 0.69,3.1836 0.98,7.9023 0.68,11.4807 -1.03,13.293 -10.18,21.222 -24.47,21.222 -16.12,0 -30.57,-13.902 -34.35,-33.0426 l -11.02,-58.2968 c -0.03,-0.1797 -0.18,-0.3008 -0.36,-0.3008 h -15.37 c -0.12,0 -0.23,0.039 -0.29,0.1406 -0.07,0.0781 -0.1,0.1875 -0.08,0.3086 l 19.48,103.211 c 0.03,0.187 0.19,0.309 0.36,0.309 h 15.37 c 0.12,0 0.22,-0.04 0.29,-0.141 0.07,-0.078 0.1,-0.188 0.08,-0.301 l -2.81,-15.34 c 7.53,9.082 17.5,17.981 33.82,17.981 20.22,0 34.28,-12.668 35.82,-32.289 0.31,-4.059 -0.14,-9.3089 -1.36,-16.0784 l -10.67,-57.5 c -0.04,-0.1719 -0.2,-0.3008 -0.37,-0.3008" /><path
         id="path42"
         style="fill:#231f20;fill-opacity:1;fill-rule:nonzero;stroke:none"
         d="m 2868.76,0 c -8.43,0 -15.84,2.30078 -23.33,7.26172 -0.17,0.09766 -0.21,0.32812 -0.1,0.50781 l 7.48,11.51957 c 0.06,0.0898 0.14,0.1523 0.24,0.1718 0.11,0 0.21,0 0.29,-0.082 3.86,-2.8281 10.87,-5.0508 15.96,-5.0508 9.27,0 16.53,5.4102 25.06,18.6602 l -26.79,103.0627 c -0.03,0.109 -0.01,0.23 0.06,0.328 0.08,0.09 0.19,0.141 0.3,0.141 h 15.97 c 0.18,0 0.32,-0.11 0.37,-0.29 l 20.89,-85.3003 48.29,85.3983 c 0.07,0.121 0.2,0.192 0.33,0.192 h 17.37 c 0.13,0 0.26,-0.071 0.33,-0.192 0.06,-0.117 0.06,-0.25 -0.01,-0.367 L 2909.15,29.1719 C 2896.52,8.46094 2884.82,0 2868.76,0" /><path
         id="path44"
         style="fill:#231f20;fill-opacity:1;fill-rule:nonzero;stroke:none"
         d="m 520.102,32.5508 h -15.801 c -0.121,0 -0.223,0.039 -0.289,0.1406 -0.071,0.0781 -0.102,0.1875 -0.082,0.3086 l 24.172,127.578 -27.122,-8.027 c -0.109,-0.02 -0.218,0 -0.32,0.058 -0.09,0.063 -0.148,0.153 -0.16,0.27 l -1.469,13.781 c -0.019,0.18 0.09,0.34 0.25,0.391 l 36.59,11.98 c 0.039,0.008 0.078,0.02 0.117,0.02 h 11.782 c 0.121,0 0.218,-0.051 0.289,-0.129 0.07,-0.094 0.101,-0.211 0.082,-0.32 L 520.461,32.8516 c -0.031,-0.1797 -0.18,-0.3008 -0.359,-0.3008" /><path
         id="path46"
         style="fill:#231f20;fill-opacity:1;fill-rule:nonzero;stroke:none"
         d="m 204.559,91.1992 h 65.711 c 0.441,1.9219 0.539,4.461 0.289,7.582 -0.989,12.6678 -8.731,26.2068 -27.45,26.2068 -10.39,0 -19.898,-4.238 -27.507,-12.269 -5.204,-5.641 -9.012,-13.0784 -11.043,-21.5198 z m 32.39,-61.0508 c -27.551,0 -47.449,17.793 -49.527,44.2735 -1.32,16.9765 4.656,34.4761 16.027,46.7971 10.539,11.453 24.18,17.5 39.449,17.5 27.821,0 41.832,-20.028 43.383,-39.8792 0.508,-6.539 -0.179,-13.1679 -2.07,-19.7109 -0.051,-0.1601 -0.191,-0.2578 -0.359,-0.2578 H 203.34 c -0.039,-1.2617 0.051,-2.543 0.148,-3.7813 1.473,-18.7187 14.5,-30.8086 33.211,-30.8086 13.731,0 22.141,4.8282 30.551,12.0899 0.078,0.0586 0.191,0.0898 0.27,0.0898 0.101,-0.0117 0.191,-0.0507 0.261,-0.1328 l 8.778,-10.1875 C 276.68,46 276.672,45.75 276.52,45.6211 268.539,38.4219 256.828,30.1484 236.949,30.1484" /><path
         id="path48"
         style="fill:#231f20;fill-opacity:1;fill-rule:nonzero;stroke:none"
         d="m 833.09,81.6602 c -8.442,0 -15.192,-2.3711 -19.551,-6.8594 -3.051,-3.3125 -4.461,-7.6289 -4.09,-12.5 0.66,-8.3906 7.68,-13.832 17.91,-13.832 14.332,0 27.321,10.6914 30.2,24.8593 l 0.961,4.461 c -4.809,1.5 -14.25,3.8711 -25.43,3.8711 z M 819.141,30.3398 c -18.903,0 -33.032,11.9805 -34.379,29.1016 -0.793,10.0977 1.929,18.7188 8.097,25.6484 7.879,8.3204 20.45,12.9102 35.422,12.9102 10.367,0 20.828,-1.6289 32.879,-5.1094 l 0.36,1.4297 c 0.402,2.6289 0.742,5.5391 0.5,8.6487 -0.809,10.371 -8.969,15.633 -24.231,15.633 -9.527,0 -19.008,-1.942 -28.16,-5.762 -0.098,-0.039 -0.207,-0.039 -0.301,0 -0.098,0.051 -0.18,0.14 -0.199,0.25 l -5.52,19.558 c -0.058,0.18 0.039,0.383 0.211,0.454 11.77,4.718 23.918,7.019 37.129,7.019 27.403,0 43.391,-11.691 45.051,-32.902 0.379,-4.93 -0.102,-9.5588 -1.012,-15.4573 l -11.16,-58.9101 c -0.027,-0.1797 -0.18,-0.3008 -0.367,-0.3008 h -23.359 c -0.114,0 -0.211,0.039 -0.282,0.1406 -0.07,0.0703 -0.109,0.1875 -0.09,0.3086 l 2.258,12.5898 c -8.75,-10.1093 -19.797,-15.25 -32.847,-15.25" /><path
         id="path50"
         style="fill:#231f20;fill-opacity:1;fill-rule:nonzero;stroke:none"
         d="m 1062.56,81.6602 c -8.43,0 -15.19,-2.3711 -19.55,-6.8594 -3.04,-3.332 -4.46,-7.6406 -4.08,-12.5 0.65,-8.3906 7.69,-13.832 17.9,-13.832 14.34,0 27.33,10.6914 30.22,24.8593 l 0.94,4.461 c -4.81,1.5 -14.24,3.8711 -25.43,3.8711 z m -13.95,-51.3204 c -18.9,0 -33.03,11.9805 -34.37,29.1016 -0.79,10.0977 1.94,18.7188 8.1,25.6484 7.88,8.3204 20.45,12.9102 35.41,12.9102 10.38,0 20.84,-1.6289 32.88,-5.1094 l 0.37,1.4297 c 0.4,2.6289 0.74,5.5391 0.5,8.6487 -0.81,10.371 -8.97,15.633 -24.24,15.633 -9.53,0 -19,-1.942 -28.14,-5.762 -0.11,-0.039 -0.23,-0.039 -0.32,0 -0.09,0.051 -0.16,0.14 -0.19,0.25 l -5.53,19.558 c -0.05,0.18 0.05,0.383 0.23,0.454 11.76,4.718 23.9,7.019 37.11,7.019 27.4,0 43.39,-11.691 45.05,-32.902 0.38,-4.93 -0.09,-9.5588 -0.99,-15.4573 l -11.17,-58.9101 c -0.03,-0.1797 -0.19,-0.3008 -0.37,-0.3008 h -23.36 c -0.11,0 -0.21,0.039 -0.29,0.1406 -0.07,0.0703 -0.1,0.1875 -0.08,0.3086 l 2.26,12.5898 c -8.76,-10.1093 -19.8,-15.25 -32.86,-15.25" /><path
         id="path52"
         style="fill:#231f20;fill-opacity:1;fill-rule:nonzero;stroke:none"
         d="m 1187.47,119.602 c -8.83,0 -17.17,-3.641 -23.47,-10.262 -6.46,-7.012 -9.6,-16.1291 -8.86,-25.6798 1.08,-13.6993 10.94,-22.211 25.75,-22.211 9.42,0 18.46,3.961 24.82,10.8594 6.42,6.9726 9.46,15.3008 8.78,24.0703 -1.07,13.6721 -12.18,23.2231 -27.02,23.2231 z M 1175.64,0.199219 c -20.46,0 -41.23,6.070311 -55.59,16.249981 -0.07,0.0508 -0.13,0.1406 -0.15,0.2422 -0.01,0.0977 0.01,0.1992 0.07,0.2695 l 12.07,16.7774 c 0.11,0.1836 0.34,0.2109 0.51,0.0898 12.11,-8.5898 26.37,-13.3086 40.16,-13.3086 10.75,0 19.08,3.1094 24.75,9.2617 4.34,4.7071 7.18,11.25 9.21,21.1876 l 1.06,5.1718 c -11.07,-10.7812 -21.07,-15.2109 -34.28,-15.2109 -20.31,0 -41.9,13.2187 -43.88,38.4805 -1.29,16.5898 4.04,32.2888 15.03,44.2108 10.12,10.988 24.29,17.301 38.86,17.301 20.33,0 30.06,-10.793 36.2,-20.524 l 3.33,18.012 c 0.04,0.168 0.2,0.309 0.37,0.309 h 24.16 c 0.11,0 0.22,-0.059 0.29,-0.141 0.08,-0.078 0.11,-0.199 0.08,-0.308 l -16.35,-87.0512 c -3.62,-18.7891 -7.47,-27.8985 -15.26,-36.129 C 1206.92,4.92969 1194,0.199219 1175.64,0.199219" /><path
         id="path54"
         style="fill:#231f20;fill-opacity:1;fill-rule:nonzero;stroke:none"
         d="m 1280.78,93.5898 h 53.92 c 0.43,1.8711 0.55,4.3321 0.34,6.9882 -0.96,12.422 -9.25,19.82 -22.16,19.82 -9.05,0 -17.08,-3.546 -23.28,-10.269 -4.07,-4.418 -7.11,-10.117 -8.82,-16.5392 z m 26.77,-63.4414 c -29.76,0 -49.65,17.8125 -51.89,46.4727 -1.31,16.7305 4.63,34.0079 15.88,46.1989 10.74,11.668 25.52,18.102 41.59,18.102 13.02,0 24.23,-4.141 32.42,-11.973 7.66,-7.301 12.37,-17.711 13.27,-29.3084 0.59,-7.4609 -0.4,-15.25 -2.86,-22.5195 -0.05,-0.1602 -0.19,-0.25 -0.35,-0.25 h -76.26 c 1.45,-16.4102 12.29,-26.1992 29.05,-26.1992 9.49,0 17,2.9179 25.92,10.0976 0.16,0.1289 0.39,0.1016 0.53,-0.0586 l 12.78,-15.3711 c 0.13,-0.1484 0.11,-0.3906 -0.04,-0.5117 -11.02,-9.8789 -24.12,-14.6797 -40.04,-14.6797" /><path
         id="path56"
         style="fill:#231f20;fill-opacity:1;fill-rule:nonzero;stroke:none"
         d="m 1426.88,119.398 c -8.52,0 -16.5,-3.57 -22.49,-10.058 -7.41,-8.051 -11.12,-19.6603 -10.17,-31.8712 1.22,-15.5469 11.74,-25.5977 26.82,-25.5977 8.85,0 17.45,3.9492 23.61,10.8398 7.66,8.3203 11.55,19.418 10.68,30.4805 -1.2,15.4296 -12.9,26.2066 -28.45,26.2066 z m -13.4,-89.0582 c -11.65,0 -22.49,4.3399 -30.54,12.1993 -8.42,8.2304 -13.43,19.7421 -14.5,33.2812 -1.43,18.3906 4.09,35.3707 15.56,47.8007 10.13,10.988 24.14,17.301 38.46,17.301 16.09,0 28.2,-6.66 36.99,-20.332 l 10.97,58.148 c 0.03,0.184 0.19,0.313 0.37,0.313 h 24.16 c 0.1,0 0.21,-0.051 0.28,-0.129 0.08,-0.094 0.11,-0.211 0.08,-0.32 L 1467.78,32.8516 c -0.03,-0.1797 -0.19,-0.3008 -0.37,-0.3008 h -24.16 c -0.11,0 -0.22,0.039 -0.29,0.1406 -0.07,0.0781 -0.1,0.1875 -0.07,0.3086 l 2.45,12.6719 c -9.75,-10.4414 -19.91,-15.3321 -31.86,-15.3321" /><path
         id="path58"
         style="fill:#231f20;fill-opacity:1;fill-rule:nonzero;stroke:none"
         d="m 1762.48,119.199 c -8.18,0 -16.1,-3.578 -22.3,-10.07 -7.1,-7.5 -11.15,-19.1407 -10.33,-29.6681 1.33,-17.0195 12.35,-27.5898 28.77,-27.5898 8.46,0 16.58,3.6601 22.28,10.0508 7.1,7.5078 11.17,19.1562 10.34,29.6679 -1.33,17.0312 -12.36,27.6092 -28.76,27.6092 z m -3.63,-89.0506 c -14.7,0 -27.62,4.75 -37.38,13.7618 -9.41,8.6796 -15.2,21 -16.27,34.6992 -1.24,15.9687 4.32,31.9416 15.27,43.8126 10.78,11.93 25.6,18.5 41.76,18.5 14.72,0 27.64,-4.774 37.38,-13.781 9.43,-8.719 15.21,-21.11 16.28,-34.891 1.25,-16.0508 -4.31,-31.9492 -15.28,-43.6211 -10.77,-11.918 -25.6,-18.4805 -41.76,-18.4805" /><path
         id="path60"
         style="fill:#231f20;fill-opacity:1;fill-rule:nonzero;stroke:none"
         d="m 2000.6,119.398 c -8.52,0 -16.5,-3.57 -22.49,-10.058 -7.41,-8.051 -11.11,-19.6603 -10.16,-31.8712 1.22,-15.5469 11.73,-25.5977 26.81,-25.5977 8.85,0 17.45,3.9492 23.61,10.8398 7.66,8.3203 11.55,19.418 10.69,30.4805 -1.21,15.4296 -12.91,26.2066 -28.46,26.2066 z m -13.4,-89.0582 c -11.65,0 -22.49,4.3399 -30.53,12.1993 -8.42,8.2304 -13.44,19.7421 -14.5,33.2812 -1.43,18.3906 4.08,35.3707 15.55,47.8007 10.13,10.988 24.14,17.301 38.46,17.301 16.09,0 28.2,-6.66 36.99,-20.332 l 10.98,58.148 c 0.02,0.184 0.18,0.313 0.36,0.313 h 24.16 c 0.11,0 0.22,-0.051 0.29,-0.129 0.07,-0.094 0.1,-0.211 0.08,-0.32 L 2041.5,32.8516 c -0.03,-0.1797 -0.19,-0.3008 -0.37,-0.3008 h -24.16 c -0.11,0 -0.22,0.039 -0.29,0.1406 -0.07,0.0781 -0.1,0.1875 -0.07,0.3086 l 2.45,12.6719 c -9.75,-10.4414 -19.9,-15.3321 -31.86,-15.3321" /><path
         id="path62"
         style="fill:#231f20;fill-opacity:1;fill-rule:nonzero;stroke:none"
         d="m 2278.34,124.391 c -10.44,0 -20.41,-4.563 -28.05,-12.86 -8.46,-9.179 -12.93,-21.9919 -11.97,-34.2498 1.57,-20.1093 14.8,-32.6015 34.54,-32.6015 10.58,0 20.55,4.4922 28.07,12.6484 8.46,9.1836 12.94,21.9922 11.98,34.2617 -1.59,20.2382 -14.83,32.8012 -34.57,32.8012 z m -5.41,-94.2426 c -27.82,0 -48.76,19.2032 -50.9,46.6719 -1.26,16.0313 4.31,31.9297 15.28,43.6097 10.87,11.789 25.42,18.289 40.98,18.289 27.94,0 48.95,-19.11 51.1,-46.469 1.23,-15.7617 -4.34,-31.7188 -15.26,-43.8086 -10.73,-11.6211 -25.74,-18.293 -41.2,-18.293" /><path
         id="path64"
         style="fill:#231f20;fill-opacity:1;fill-rule:nonzero;stroke:none"
         d="m 2581.69,124.391 c -10.76,0 -21.39,-4.981 -29.19,-13.653 -8.94,-9.707 -13.52,-22.2575 -12.56,-34.4568 1.44,-18.4296 15.78,-31.8007 34.08,-31.8007 10.24,0 19.88,4.2109 27.14,11.8593 8.57,9.5118 12.86,22.9493 11.77,36.8516 -1.46,18.6606 -14.02,31.1996 -31.24,31.1996 z M 2525.29,0.601562 h -15.38 c -0.11,0 -0.22,0.046876 -0.29,0.128907 -0.07,0.089843 -0.1,0.199219 -0.07,0.308591 l 25.56,135.17194 c 0.03,0.187 0.19,0.309 0.37,0.309 h 15.37 c 0.11,0 0.22,-0.04 0.29,-0.141 0.08,-0.078 0.11,-0.199 0.08,-0.301 l -3.12,-16.308 c 10.58,12.742 22.68,18.949 36.92,18.949 24.3,0 42.69,-18.117 44.72,-44.0706 1.41,-18 -4.27,-35.3476 -15.57,-47.6093 -10.03,-10.8907 -23.42,-16.8907 -37.69,-16.8907 -22.55,0 -34.46,13.2618 -40.57,24.793 L 2525.65,0.910156 c -0.03,-0.191406 -0.19,-0.308594 -0.36,-0.308594" /><path
         id="path66"
         style="fill:#231f20;fill-opacity:1;fill-rule:nonzero;stroke:none"
         d="m 2684.28,84.8516 c -10.21,0 -18.31,-2.9297 -23.42,-8.4532 -3.91,-4.0586 -5.73,-9.3398 -5.26,-15.2968 0.85,-10.9414 9.89,-18.0235 23.02,-18.0235 18.11,0 34.34,13.0821 37.76,30.4531 l 1.37,6.8399 c -10.38,2.8906 -22.26,4.4805 -33.47,4.4805 z m -9.52,-54.5118 c -15.94,0 -33.79,9.0508 -35.34,28.9102 -0.76,9.7617 1.99,18.3594 7.96,24.8398 7.66,8.3204 20.24,12.8985 35.41,12.8985 11.2,0 23.27,-1.7891 36.87,-5.5 l 0.34,2 c 0.6,3.1601 0.85,6.8827 0.65,9.4807 -1.06,13.48 -11.15,20.621 -29.22,20.621 -11.98,0 -21.18,-2.711 -28.59,-5.371 -0.11,-0.028 -0.21,-0.028 -0.31,0.019 -0.08,0.051 -0.15,0.141 -0.18,0.231 l -3.6,12.781 c -0.05,0.191 0.04,0.379 0.23,0.461 11.2,4.301 21.63,6.211 33.79,6.211 25.98,0 41.8,-11.774 43.4,-32.301 0.34,-4.301 -0.05,-9.3827 -1.1,-14.2812 l -10.99,-58.4882 c -0.03,-0.1719 -0.19,-0.3008 -0.37,-0.3008 h -14.97 c -0.11,0 -0.22,0.039 -0.29,0.1406 -0.08,0.0781 -0.11,0.1875 -0.08,0.3086 l 2.85,14.6992 c -9.63,-11.5195 -21.89,-17.3594 -36.46,-17.3594" /><path
         id="path68"
         style="fill:#231f20;fill-opacity:1;fill-rule:nonzero;stroke:none"
         d="m 394.359,83.3789 h 35.45 l 7.82,41.0901 H 402.18 Z m 41.45,-50.8281 H 420.59 c -0.11,0 -0.211,0.039 -0.281,0.1406 -0.079,0.0781 -0.11,0.1875 -0.079,0.3086 l 6.59,34.6992 h -35.449 l -6.633,-34.8476 c -0.027,-0.1797 -0.179,-0.3008 -0.359,-0.3008 H 369.16 c -0.109,0 -0.219,0.039 -0.289,0.1406 -0.07,0.0781 -0.101,0.1875 -0.082,0.3086 l 6.609,34.6992 H 349.52 c -0.122,0 -0.231,0.0391 -0.301,0.1289 -0.071,0.0938 -0.09,0.2031 -0.071,0.3008 l 2.84,14.9492 c 0.032,0.1719 0.184,0.3008 0.371,0.3008 h 26.012 l 7.828,41.0901 H 360.32 c -0.109,0 -0.218,0.051 -0.289,0.14 -0.07,0.09 -0.101,0.211 -0.07,0.301 l 2.84,14.942 c 0.027,0.187 0.179,0.32 0.359,0.32 h 26.02 L 395.809,175 c 0.031,0.191 0.191,0.301 0.382,0.301 h 15.207 c 0.114,0 0.223,-0.039 0.282,-0.129 0.082,-0.082 0.109,-0.203 0.082,-0.313 l -6.602,-34.687 h 35.449 L 447.25,175 c 0.031,0.191 0.191,0.301 0.359,0.301 h 15.219 c 0.113,0 0.223,-0.039 0.293,-0.129 0.07,-0.082 0.098,-0.203 0.078,-0.313 l -6.597,-34.687 h 25.226 c 0.121,0 0.231,-0.051 0.293,-0.141 0.07,-0.09 0.098,-0.203 0.078,-0.312 l -2.847,-14.938 c -0.032,-0.179 -0.192,-0.312 -0.364,-0.312 h -25.379 l -7.82,-41.0901 h 25.242 c 0.11,0 0.207,-0.0508 0.278,-0.1406 0.082,-0.0899 0.113,-0.1992 0.082,-0.2969 L 468.551,68 c -0.031,-0.1797 -0.192,-0.3008 -0.36,-0.3008 H 442.809 L 436.18,32.8516 c -0.032,-0.1797 -0.192,-0.3008 -0.371,-0.3008" /><g
         id="g70"><g
           clip-path="url(#clipPath76)"
           id="g72"><path
             id="path78"
             style="fill:#e3182c;fill-opacity:1;fill-rule:evenodd;stroke:none"
             d="m 478.379,798.02 c 0.152,-0.059 0.25,-0.219 0.25,-0.379 0,-0.063 -0.008,-0.11 -0.02,-0.141 -10.558,-29.91 -28.07,-63.941 -45.418,-89.762 -36.55,-54.269 -89.043,-88.508 -117.179,-76.437 -28.133,12.058 -21.371,65.859 15.218,120.16 8.239,12.187 17.258,23.359 26.622,33.23 0.058,0.09 0.109,0.18 0.109,0.289 0,0.231 -0.18,0.411 -0.41,0.411 0,0 -0.051,0 -0.063,-0.012 -11.488,-1.59 -23.136,-3.859 -34.898,-6.828 -0.078,-0.012 -0.149,-0.071 -0.211,-0.141 -123.508,-151.469 -176.07,-348.18 -168.84,-523.672 0,-0.238 -0.18,-0.41 -0.41,-0.41 -0.051,0 -0.109,0 -0.16,0.024 C 80.1719,283.68 26.9688,354.02 21.4219,443.078 l -0.0703,1.031 c -9.1914,158.45 117.1174,320.75 282.1604,362.532 63.949,16.187 124.367,11.918 174.867,-8.621 z M 334.488,707.922 c -11.84,-24.961 -7.129,-45.453 10.524,-45.762 17.66,-0.308 41.597,19.649 53.418,44.59 11.851,24.969 7.129,45.461 -10.532,45.781 -17.648,0.289 -41.578,-19.672 -53.41,-44.609" /><path
             id="path80"
             style="fill:#231f20;fill-opacity:1;fill-rule:nonzero;stroke:none"
             d="m 431.691,370.672 c -11.992,-8.332 -24.511,-16.024 -37.441,-22.961 -0.059,-0.02 -0.121,-0.039 -0.18,-0.039 -0.23,0 -0.41,0.168 -0.422,0.387 -2.418,38.043 -10.609,74.902 -24.777,105.562 C 331.09,535.48 265.051,541.789 221.422,467.68 194.73,422.32 182.57,357.328 185.859,294.949 c 0,-0.168 0.121,-0.328 0.282,-0.371 46.289,-14.5 99.621,-16.09 156.507,-1.738 164.801,41.988 290.864,204.129 281.692,362.41 -8.07,139.051 -117.738,228.898 -256.012,220.559 -0.09,0 -0.18,-0.039 -0.25,-0.118 -13.449,-13.601 -26.027,-27.332 -37.84,-41.203 -0.058,-0.066 -0.097,-0.16 -0.097,-0.25 0,-0.238 0.187,-0.418 0.41,-0.418 0.008,0 0.039,0 0.058,0.008 81.02,10.25 145.961,-6.207 188.332,-39.969 0.098,-0.078 0.161,-0.199 0.161,-0.32 0,-0.078 -0.024,-0.168 -0.063,-0.23 -146.008,-205.84 -127.93,-323.098 -87.199,-422.137 0.019,-0.051 0.031,-0.102 0.031,-0.152 0,-0.141 -0.07,-0.27 -0.18,-0.348" /></g></g><path
         id="path82"
         style="fill:#231f20;fill-opacity:1;fill-rule:nonzero;stroke:none"
         d="m 1793.61,606.148 c 34.46,0 59.92,-7.5 72.22,-14.437 0.14,-0.09 0.23,-0.262 0.19,-0.441 l -11.89,-62.411 c -0.02,-0.129 -0.12,-0.238 -0.24,-0.3 -0.12,-0.047 -0.25,-0.047 -0.37,0.011 -13.94,7.602 -38.05,15.7 -63.93,15.7 -21.72,0 -35.87,-9.09 -35.87,-24.34 0,-10.93 10.83,-20.719 33.75,-31.891 29.86,-14.91 63.59,-37.008 63.59,-76.969 0,-26.07 -8.7,-47.879 -25.83,-64.871 -22.78,-22.609 -59.75,-34.949 -104.19,-34.609 -34.19,0.57 -68.76,9.441 -86.06,21.961 -0.14,0.09 -0.2,0.258 -0.17,0.418 l 11.92,62.801 c 0.03,0.121 0.12,0.242 0.26,0.3 0.12,0.051 0.26,0.032 0.38,-0.039 18.51,-11.609 54.97,-24.133 81.74,-24.133 20.74,0 34.71,9.582 34.71,24.93 0,13.91 -9.82,23.633 -34.91,35.91 -39.69,19.84 -59.54,45 -59.54,74.66 0,58.332 49.69,97.75 124.24,97.75" /><path
         id="path84"
         style="fill:#231f20;fill-opacity:1;fill-rule:nonzero;stroke:none"
         d="m 879.199,606.73 c 4.961,0 11.063,-0.531 15.52,-1.339 0.109,-0.02 0.203,-0.082 0.261,-0.18 0.059,-0.102 0.09,-0.199 0.059,-0.313 l -16.117,-81.207 c -0.024,-0.113 -0.082,-0.203 -0.184,-0.261 -0.078,-0.071 -0.199,-0.078 -0.308,-0.071 -2.93,0.61 -7.59,1.332 -13.051,1.332 -56.899,0 -79.098,-55.621 -87.719,-101.601 L 757.461,314.949 c -0.051,-0.187 -0.211,-0.328 -0.41,-0.328 h -82.949 c -0.133,0 -0.25,0.059 -0.321,0.149 -0.07,0.089 -0.109,0.218 -0.09,0.351 l 54.188,284.918 c 0.031,0.199 0.211,0.34 0.41,0.34 l 72.941,0.012 c 0.141,0 0.258,-0.051 0.34,-0.153 0.059,-0.066 0.09,-0.168 0.09,-0.258 l -9.301,-48.968 c -0.07,-0.34 0,-0.774 0.422,-0.981 0.43,-0.222 0.891,-0.082 1.18,0.367 21.789,36.172 51.91,56.332 85.238,56.332" /><path
         id="path86"
         style="fill:#231f20;fill-opacity:1;fill-rule:nonzero;stroke:none"
         d="m 1020.41,317.5 c -0.09,0.109 -0.11,0.219 -0.09,0.34 l 6.97,35.308 c 0.1,0.563 -0.2,0.981 -0.68,1.082 -0.39,0.071 -0.75,-0.152 -0.92,-0.46 -15.41,-26.11 -45.581,-42.758 -79.51,-42.758 -55.692,0 -80.852,49.429 -80.879,98.898 -0.039,56.199 22.039,111.86 59.019,148.871 30.981,31 70.961,47.367 115.66,47.367 34,-0.128 59.15,-9.976 74.91,-29.078 23.34,-28.269 21.42,-70.711 15.6,-101.57 l -30.15,-157.809 c -0.04,-0.203 -0.2,-0.351 -0.41,-0.351 h -79.2 c -0.13,0 -0.25,0.058 -0.32,0.16 z m -31.101,208.211 c -22.508,-22.52 -39.399,-64.813 -39.379,-98.473 0.011,-29.558 10.961,-47.968 30.019,-47.968 30.491,0 56.751,31.878 65.791,78.57 2.03,10.43 4.08,21.051 5.55,30.48 1.49,9.43 2.41,17.75 2.13,23.559 -0.96,19.949 -11.34,30.699 -29.96,30.699 -11.38,0 -23.19,-5.887 -34.151,-16.867" /><path
         id="path88"
         style="fill:#231f20;fill-opacity:1;fill-rule:nonzero;stroke:none"
         d="m 2061.67,606.148 c 55.45,0 91.41,-42.027 91.41,-107.546 0,-68.711 -32.99,-139.161 -92.45,-170.864 -54.17,-28.867 -102.57,-16.207 -117.77,6.41 -0.02,0.051 -0.09,0.051 -0.09,-0.007 l -20.25,-107 c -0.02,-0.2 -0.2,-0.352 -0.41,-0.352 h -82.96 c -0.12,0 -0.24,0.063 -0.32,0.152 -0.08,0.098 -0.1,0.231 -0.08,0.34 l 71.22,374.547 c 0.03,0.192 0.21,0.344 0.41,0.344 l 72.95,-0.051 c 0.12,0 0.24,-0.062 0.33,-0.152 0.08,-0.098 0.09,-0.231 0.08,-0.34 l -7.25,-38.129 c -0.08,-0.422 -0.04,-0.93 0.38,-1.109 0.4,-0.153 0.84,-0.02 1.16,0.398 l 0.35,0.461 c 21.36,27.422 51.55,42.898 83.29,42.898 z m -72.08,-231.527 c 44.02,0 76.34,62.481 76.34,117.641 0,13.316 -3.14,45.668 -33.84,45.668 -31.21,0 -57.55,-35.571 -67.77,-89.5 -3.49,-18.442 -13.28,-73.809 25.27,-73.809" /><path
         id="path90"
         style="fill:#231f20;fill-opacity:1;fill-rule:nonzero;stroke:none"
         d="m 1439.99,699.488 h 82.38 c 0.12,0 0.23,-0.058 0.31,-0.136 0.09,-0.122 0.11,-0.243 0.09,-0.364 l -42.98,-226.047 c -0.02,-0.152 0.01,-0.281 0.16,-0.339 0.12,-0.071 0.28,-0.032 0.37,0.078 l 110.6,127.558 c 0.08,0.09 0.2,0.141 0.32,0.141 h 90.35 c 0.16,0 0.32,-0.098 0.39,-0.25 0.02,-0.059 0.04,-0.117 0.04,-0.18 0,-0.09 -0.04,-0.187 -0.11,-0.258 l -114.77,-129.293 70.01,-151.91 c 0.03,-0.058 0.03,-0.109 0.03,-0.168 0,-0.09 -0.02,-0.172 -0.05,-0.218 -0.08,-0.133 -0.21,-0.204 -0.35,-0.204 h -89.2 c -0.15,0 -0.31,0.09 -0.38,0.243 l -67.72,150.179 c -0.05,0.129 -0.17,0.2 -0.31,0.192 -0.14,-0.012 -0.23,-0.114 -0.27,-0.25 L 1450.39,318.23 c -0.04,-0.191 -0.21,-0.332 -0.41,-0.332 h -82.39 c -0.12,0 -0.24,0.063 -0.32,0.153 -0.09,0.097 -0.11,0.23 -0.09,0.34 l 72.4,380.757 c 0.02,0.211 0.2,0.34 0.41,0.34" /><g
         id="g92"><g
           clip-path="url(#clipPath98)"
           id="g94"><path
             id="path100"
             style="fill:#231f20;fill-opacity:1;fill-rule:nonzero;stroke:none"
             d="m 2828.79,606.141 c 58.99,0 98.33,-34.27 98.33,-85.082 0,-23.489 -7.64,-42.821 -22.7,-57.5 -27.63,-26.918 -79.5,-39.239 -158.88,-37.379 l -0.89,0.011 c -0.01,0.008 -0.02,0 -0.02,0 -0.01,-0.011 -0.01,-0.011 -0.01,-0.031 l 0.03,-0.89 c 0.28,-8.168 3.1,-19.7 8.43,-27.168 10.85,-13.723 30.04,-21.18 53.83,-21.18 34.76,0 64.89,8.437 97.66,27.328 0.14,0.09 0.32,0.078 0.44,-0.02 0.14,-0.101 0.2,-0.261 0.18,-0.41 l -13.21,-69.441 c -0.02,-0.117 -0.1,-0.231 -0.21,-0.289 -39.9,-20.309 -86.72,-22.512 -105.02,-22.512 -77.97,0 -122.54,43.352 -122.54,119.063 0,43.648 16.04,87.39 43.97,120 30.64,35.808 73.49,55.5 120.61,55.5 z m 19.75,-85.082 c 0,14.582 -12.08,23.781 -30.12,23.781 -35.78,0 -58.73,-28.942 -65.42,-56.262 l -0.23,-0.988 c -0.02,-0.02 -0.02,-0.039 0,-0.059 0.02,-0.019 0.03,-0.031 0.06,-0.031 h 1.01 c 48.5,-0.309 75.84,4.672 87.83,16.531 4.62,4.598 6.87,10.188 6.87,17.028" /><path
             id="path102"
             style="fill:#231f20;fill-opacity:1;fill-rule:nonzero;stroke:none"
             d="m 2959.41,363.672 h -4.01 l -1.51,-8.07 -1.51,-8.024 h 4.39 c 2.03,0.043 3.37,0.063 4.45,0.133 1.18,0.078 2.06,0.25 3.02,0.539 3.8,1.102 6.47,3.871 7.12,7.398 0.68,3.512 -0.94,6.262 -4.3,7.34 -0.86,0.321 -1.64,0.461 -2.81,0.551 -1.05,0.07 -2.38,0.082 -4.39,0.133 z m -8.35,5.148 c 0.02,0.078 0.09,0.141 0.18,0.141 h 9.24 c 2.35,-0.039 3.89,-0.051 5.08,-0.141 1.6,-0.121 2.8,-0.371 4.04,-0.8 4.65,-1.551 7.3,-5.231 7.3,-9.911 0,-0.82 -0.09,-1.648 -0.26,-2.507 -1.07,-5.774 -4.7,-10.454 -11.4,-12.301 l 5.87,-17.313 c 0,-0.019 0.01,-0.027 0.01,-0.058 0,-0.032 -0.01,-0.059 -0.03,-0.09 -0.04,-0.059 -0.09,-0.078 -0.15,-0.078 H 2965 c -0.08,0 -0.15,0.047 -0.17,0.117 l -5.61,16.48 -3.66,-0.078 h -4.18 l -3.07,-16.383 c -0.01,-0.078 -0.1,-0.136 -0.18,-0.136 h -4.93 c -0.05,0 -0.11,0.019 -0.15,0.066 -0.02,0.043 -0.05,0.082 -0.05,0.141 l 3.13,16.519 0.03,0.223 2.45,12.949 z m -28.53,-21.55 c 1.83,20.171 19.63,36.531 39.8,36.531 20.17,0 35.05,-16.36 33.25,-36.531 -1.83,-20.161 -19.65,-36.508 -39.81,-36.508 -20.17,0 -35.05,16.347 -33.24,36.508 z m 4.96,-0.45 c -1.56,-17.281 11.04,-31.09 28.28,-31.09 17.57,0 33.27,14.379 34.84,31.981 1.55,17.301 -11.05,31.109 -28.28,31.109 -17.57,0 -33.24,-14.371 -34.84,-32" /></g></g><path
         id="path104"
         style="fill:#231f20;fill-opacity:1;fill-rule:nonzero;stroke:none"
         d="m 2313.78,317.5 c -0.07,0.109 -0.1,0.219 -0.07,0.34 l 6.97,35.308 c 0.09,0.563 -0.21,0.981 -0.69,1.082 -0.4,0.071 -0.75,-0.152 -0.92,-0.46 -15.41,-26.11 -45.58,-42.758 -79.51,-42.758 -55.69,0 -80.85,49.429 -80.88,98.898 -0.04,56.199 22.04,111.86 59.02,148.871 30.98,31 70.96,47.367 115.65,47.367 34.01,-0.128 59.16,-9.976 74.93,-29.078 23.33,-28.269 21.41,-70.711 15.59,-101.57 l -30.15,-157.809 c -0.03,-0.203 -0.2,-0.351 -0.41,-0.351 h -79.19 c -0.14,0 -0.26,0.058 -0.34,0.16 z m -31.09,208.211 c -22.51,-22.52 -39.4,-64.813 -39.38,-98.473 0.01,-29.558 10.96,-47.968 30.02,-47.968 30.49,0 56.75,31.878 65.79,78.57 2.03,10.43 4.08,21.051 5.55,30.48 1.5,9.43 2.41,17.75 2.14,23.559 -0.98,19.949 -11.36,30.699 -29.97,30.699 -11.39,0 -23.19,-5.887 -34.15,-16.867" /><path
         id="path106"
         style="fill:#231f20;fill-opacity:1;fill-rule:nonzero;stroke:none"
         d="m 2621.81,605.57 c 21.16,0 42.76,-3.691 57.76,-9.82 0.18,-0.078 0.29,-0.27 0.25,-0.469 l -12.81,-67.222 c -0.03,-0.129 -0.11,-0.25 -0.23,-0.297 -0.13,-0.051 -0.27,-0.051 -0.39,0.019 -12.93,7.231 -27.9,10.731 -45.74,10.731 -59.65,0 -95.19,-52.012 -95.19,-102.114 0,-42.519 28.4,-57.757 54.88,-57.757 23.67,0 43.79,5.179 69.34,17.757 0.15,0.071 0.32,0.063 0.44,-0.027 0.14,-0.101 0.19,-0.269 0.16,-0.41 l -13.08,-69.07 c -0.03,-0.11 -0.12,-0.231 -0.23,-0.289 -19.39,-9.372 -49.39,-15.012 -80.25,-15.012 -72.39,0 -119.06,45.351 -119.06,115.601 0,101.688 79.13,178.379 184.15,178.379" /><path
         id="path108"
         style="fill:#231f20;fill-opacity:1;fill-rule:nonzero;stroke:none"
         d="m 1328.43,605.57 c 21.16,0 42.76,-3.691 57.76,-9.82 0.18,-0.078 0.29,-0.27 0.25,-0.469 l -12.81,-67.222 c -0.03,-0.129 -0.11,-0.25 -0.24,-0.297 -0.12,-0.051 -0.26,-0.051 -0.38,0.019 -12.93,7.231 -27.9,10.731 -45.74,10.731 -59.65,0 -95.19,-52.012 -95.19,-102.114 0,-42.519 28.4,-57.757 54.88,-57.757 23.67,0 43.78,5.179 69.34,17.757 0.15,0.071 0.32,0.063 0.44,-0.027 0.13,-0.101 0.19,-0.269 0.16,-0.41 l -13.08,-69.07 c -0.03,-0.11 -0.11,-0.231 -0.23,-0.289 -19.39,-9.372 -49.39,-15.012 -80.25,-15.012 -72.4,0 -119.06,45.351 -119.06,115.601 0,101.688 79.13,178.379 184.15,178.379" /></g></g></svg>