<?xml version="1.0" encoding="UTF-8" standalone="no"?>
<svg
   xmlns:dc="http://purl.org/dc/elements/1.1/"
   xmlns:cc="http://creativecommons.org/ns#"
   xmlns:rdf="http://www.w3.org/1999/02/22-rdf-syntax-ns#"
   xmlns:svg="http://www.w3.org/2000/svg"
   xmlns="http://www.w3.org/2000/svg"
   viewBox="0 0 149.50667 48"
   height="48"
   width="149.50667"
   xml:space="preserve"
   id="svg2"
   version="1.1"><metadata
     id="metadata8"><rdf:RDF><cc:Work
         rdf:about=""><dc:format>image/svg+xml</dc:format><dc:type
           rdf:resource="http://purl.org/dc/dcmitype/StillImage" /></cc:Work></rdf:RDF></metadata><defs
     id="defs6" /><g
     transform="matrix(1.3333333,0,0,-1.3333333,0,48)"
     id="g10"><g
       transform="scale(0.1)"
       id="g12"><path
         id="path14"
         style="fill:#100f0d;fill-opacity:1;fill-rule:nonzero;stroke:none"
         d="m 358.188,92.9648 v 2.8829 h 1.917 c 0.973,0 2.024,-0.2188 2.024,-1.3672 0,-1.4219 -1.055,-1.5157 -2.258,-1.5157 z m 0,-1.1914 h 1.624 l 2.454,-4.0234 h 1.574 l -2.652,4.0977 c 1.378,0.164 2.417,0.8867 2.417,2.539 0,1.8477 -1.089,2.6445 -3.281,2.6445 h -3.539 V 87.75 h 1.403 v 4.0234" /><path
         id="path16"
         style="fill:#100f0d;fill-opacity:1;fill-rule:nonzero;stroke:none"
         d="m 359.855,99.8711 c -4.136,0 -7.492,-3.3555 -7.492,-7.5 0,-4.125 3.356,-7.4609 7.492,-7.4609 4.125,0 7.481,3.3359 7.481,7.4609 0,4.1445 -3.356,7.5 -7.481,7.5 z m 9.098,-7.4922 c 0,-5.0117 -4.074,-9.0898 -9.098,-9.0898 -5.023,0 -9.101,4.0781 -9.101,9.0898 0,5.0234 4.078,9.1011 9.101,9.1011 5.024,0 9.098,-4.0777 9.098,-9.1011" /><path
         id="path18"
         style="fill:#ffffff;fill-opacity:1;fill-rule:nonzero;stroke:none"
         d="m 309.383,84.7578 c -12.735,0 -24.321,-2.2031 -32.863,-5.7656 -0.942,-0.4649 -1.614,-1.4492 -1.614,-2.5664 0,-0.4141 0.106,-0.8281 0.258,-1.1797 1.012,-2.9219 -0.644,-6.0938 -8.918,-7.9141 -12.262,-2.6953 -20,-15.3476 -24.43,-19.5468 -5.199,-4.9414 -19.89,-7.9727 -17.679,-5.0274 1.73,2.2969 8.34,9.4766 12.359,17.2383 3.598,6.9375 6.801,8.9101 11.215,15.5273 1.289,1.9375 6.309,8.7578 7.769,14.1524 1.637,5.2617 1.086,11.8752 1.715,14.5902 0.903,3.929 4.606,12.441 4.883,17.246 0.16,2.722 -11.351,-3.879 -16.812,-3.879 -5.461,0 -10.782,3.273 -15.664,3.508 -6.04,0.277 -9.918,-4.664 -15.387,-3.797 -3.117,0.5 -5.746,3.25 -11.199,3.453 -7.766,0.281 -17.25,-4.32 -35.075,-3.746 -17.527,0.574 -33.718,22.156 -35.925,25.59 -2.59,4.023 -5.754,4.023 -9.2,0.855 -3.453,-3.16 -7.703,-0.676 -8.914,1.449 -2.297,4.016 -8.445,15.774 -17.9645,18.243 -13.168,3.41 -19.8359,-7.29 -18.9687,-15.805 0.8789,-8.645 6.4648,-11.071 9.0546,-15.664 2.586,-4.598 3.9102,-7.559 8.7774,-9.59 3.4492,-1.449 4.7344,-3.57 3.707,-6.406 -0.8984,-2.465 -4.4922,-3.028 -6.8476,-3.145 -5.0157,-0.238 -8.5352,1.121 -11.0977,2.758 -2.9844,1.906 -5.4102,4.547 -8.0117,9.023 -3.0117,4.95 -7.7578,7.106 -13.2813,7.106 -2.6328,0 -5.1015,-0.692 -7.289,-1.82 -8.6602,-4.516 -18.9688,-7.176 -30.0703,-7.176 L 9.39453,122.457 C 33.3984,51.2656 100.715,0 180.008,0 c 63.336,0 119.031,32.707 151.113,82.1641 -6.937,1.5898 -14.297,2.5937 -21.738,2.5937" /><path
         id="path20"
         style="fill:#100f0d;fill-opacity:1;fill-rule:nonzero;stroke:none"
         d="m 219.266,98.7969 c -0.164,0 -0.313,-0.0664 -0.418,-0.1758 -2.336,-2.707 -3.344,-3.6055 -5.024,-4.9531 -4.062,-3.2735 -8.699,0.4258 -11.676,2.1679 -6.609,3.8789 -11.925,1.4336 -13.222,-1.5742 -1.293,-3.0234 0.136,-6.6562 3.738,-6.1836 5.039,0.6524 5.262,-0.1289 8.906,-2.4453 6.789,-4.3008 11.742,-1.9609 14.274,0.0742 2.105,1.6797 3.281,3.1133 4.375,5.1602 1.953,3.8476 0.355,6.8945 -0.567,7.793 -0.101,0.082 -0.238,0.1367 -0.386,0.1367" /><path
         id="path22"
         style="fill:#100f0d;fill-opacity:1;fill-rule:nonzero;stroke:none"
         d="M 180.008,360 C 80.5898,360 0,279.414 0,179.996 0,159.875 3.30078,140.52 9.39453,122.457 H 21.9102 c 11.1015,0 21.4101,2.672 30.0703,7.18 2.1875,1.121 4.6562,1.82 7.289,1.82 5.5235,0 10.2696,-2.152 13.2813,-7.102 2.6015,-4.484 5.0273,-7.125 8.0117,-9.019 2.5625,-1.645 6.082,-3.004 11.0977,-2.766 2.3554,0.114 5.9492,0.676 6.8476,3.145 1.0274,2.832 -0.2578,4.965 -3.707,6.394 -4.8672,2.036 -6.1914,5.012 -8.7774,9.61 -2.5898,4.593 -8.1757,7.019 -9.0546,15.66 -0.8672,8.516 5.8007,19.219 18.9687,15.801 9.5195,-2.461 15.6675,-14.223 17.9645,-18.246 1.211,-2.118 5.461,-4.598 8.914,-1.446 3.446,3.168 6.61,3.168 9.2,-0.863 2.207,-3.43 18.398,-25.016 35.925,-25.578 17.825,-0.574 27.309,4.027 35.075,3.738 5.453,-0.203 8.082,-2.949 11.199,-3.445 5.469,-0.867 9.347,4.078 15.387,3.789 4.882,-0.234 10.203,-3.496 15.664,-3.496 5.461,0 16.972,6.586 16.812,3.871 -0.277,-4.805 -3.98,-13.32 -4.883,-17.238 -0.629,-2.727 -0.078,-9.3285 -1.715,-14.598 -1.46,-5.3907 -6.48,-12.211 -7.769,-14.1563 -4.414,-6.6133 -7.617,-8.5898 -11.215,-15.5195 -4.019,-7.7617 -10.629,-14.9414 -12.359,-17.2461 -2.211,-2.9414 12.48,0.0977 17.679,5.0312 4.43,4.2071 12.168,16.8555 24.43,19.5469 8.274,1.8164 9.93,4.9922 8.918,7.9219 -0.152,0.3437 -0.258,0.7656 -0.258,1.168 0,1.125 0.672,2.1054 1.614,2.5781 8.542,3.5469 20.128,5.7539 32.863,5.7539 7.441,0 14.801,-0.9922 21.738,-2.5938 18.274,28.1757 28.887,61.7657 28.887,97.8437 0,99.418 -80.586,180.004 -180,180.004" /><path
         id="path24"
         style="fill:#cd1e25;fill-opacity:1;fill-rule:nonzero;stroke:none"
         d="m 210.977,294.988 c -3.739,0.09 -7.243,0.629 -10.258,1.5 -0.356,0.094 -0.617,0.395 -0.617,0.754 0,0.36 0.261,0.672 0.625,0.762 7.195,1.668 12.054,4.387 11.711,6.957 -0.454,3.41 -9.868,5.266 -21.032,4.148 -1.222,-0.129 -2.41,-0.285 -3.566,-0.464 -0.031,0 -0.063,-0.008 -0.094,-0.008 -0.32,0 -0.582,0.25 -0.582,0.547 0,0.218 0.133,0.406 0.328,0.496 4.031,2.125 10.043,3.82 16.926,4.523 2.066,0.211 4.086,0.32 6.027,0.336 0.344,0 0.684,0 1.032,-0.004 11.535,-0.262 20.769,-4.847 20.636,-10.238 -0.136,-5.402 -9.597,-9.563 -21.136,-9.309 z m -44.981,-20.699 c -20.789,-1.504 -22.949,-3.75 -26.844,-7.898 -5.492,-5.848 -12.726,7.589 -12.726,7.589 -4.34,0.911 -9.602,7.915 -6.766,14.45 2.801,6.461 7.965,4.523 9.582,2.511 1.969,-2.449 6.176,-6.461 11.633,-6.316 5.457,0.145 11.754,1.293 20.535,1.293 8.899,0 14.883,-3.324 15.215,-6.18 0.289,-2.437 -0.723,-4.734 -10.629,-5.449 z m 115.586,-46.398 c -1.781,-5.985 -4.309,-13.629 -15.562,-19.407 -1.641,-0.839 -2.266,0.539 -1.512,1.832 4.254,7.235 5.012,9.043 6.246,11.895 1.73,4.176 2.637,10.109 -0.805,22.488 -6.765,24.363 -20.89,56.926 -31.156,67.489 -9.902,10.195 -27.855,13.062 -44.078,8.902 -5.977,-1.535 -17.664,-7.613 -39.344,-2.731 -37.519,8.45 -43.078,-10.336 -45.226,-18.515 -2.161,-8.192 -7.329,-31.449 -7.329,-31.449 -1.722,-9.477 -3.9762,-25.95 54.278,-37.047 27.144,-5.168 28.519,-12.18 29.718,-17.227 2.157,-9.039 5.598,-14.215 9.477,-16.801 3.879,-2.59 0,-4.73 -4.301,-5.168 -11.558,-1.203 -54.277,11.051 -79.55,25.414 -20.6802,12.633 -21.0239,24.012 -16.2896,33.664 -31.2343,3.379 -54.6757,-2.925 -58.9218,-17.714 -7.293,-25.371 55.7851,-68.719 127.6174,-90.473 75.386,-22.82 152.922,-6.887 161.539,40.496 3.91,21.527 -14.223,37.453 -44.801,44.352" /><path
         id="path26"
         style="fill:#100f0d;fill-opacity:1;fill-rule:nonzero;stroke:none"
         d="m 451.766,168.641 c 0,16.511 -0.344,28.652 -1.012,39.632 h 27 l 1.156,-23.421 h 0.883 c 6.07,17.359 20.449,26.207 33.762,26.207 3.043,0 4.816,-0.114 7.312,-0.672 v -29.375 c -2.918,0.574 -5.644,0.886 -9.394,0.886 -14.86,0 -25.168,-9.453 -27.953,-23.586 -0.524,-2.75 -0.805,-6.046 -0.805,-9.406 V 84.9531 h -31.203 l 0.254,83.6879" /><path
         id="path28"
         style="fill:#100f0d;fill-opacity:1;fill-rule:nonzero;stroke:none"
         d="m 612.742,159.945 c 0.141,11.426 -4.832,30.047 -25.715,30.047 -19.203,0 -27.179,-17.414 -28.578,-30.047 z m -54.23,-21.722 c 0.824,-22.348 18.117,-32.121 38.09,-32.121 14.336,0 24.601,2.242 34.027,5.707 l 4.613,-21.4535 c -10.547,-4.4766 -25.195,-7.8203 -43.094,-7.8203 -40.043,0 -63.5,24.7308 -63.5,62.5158 0,34.035 20.645,66.242 60.313,66.242 40.098,0 53.148,-32.981 53.148,-59.977 0,-5.793 -0.515,-10.445 -1.105,-13.32 l -82.492,0.227" /><path
         id="path30"
         style="fill:#100f0d;fill-opacity:1;fill-rule:nonzero;stroke:none"
         d="m 999.121,150.918 c -26.879,0.773 -62.363,-3.301 -62.363,-32.93 0,-17.734 11.707,-25.7107 24.566,-25.7107 20.567,0 32.262,12.7347 36.52,24.7497 0.886,2.633 1.277,5.278 1.277,7.395 z m 12.199,-36.648 c 0,-9.762 0.4,-19.8677 1.8,-29.3169 h -11.24 l -1.79,17.6839 h -0.586 c -5.977,-9.512 -19.731,-20.4925 -39.348,-20.4925 -24.836,0 -36.39,17.4649 -36.39,33.9215 0,28.489 25.144,45.649 75.355,45.122 v 3.296 c 0,12.211 -2.375,36.563 -31.57,36.371 -10.801,0 -22.051,-2.89 -30.981,-9.199 l -3.886,8.879 c 11.273,7.645 25.046,10.668 36.207,10.668 35.619,0 42.429,-26.738 42.429,-48.793 v -48.14" /><path
         id="path32"
         style="fill:#100f0d;fill-opacity:1;fill-rule:nonzero;stroke:none"
         d="m 1059.93,235.578 v -27.199 h 35.18 v -9.899 h -35.18 v -80.218 c 0,-15.696 4.87,-25.5276 18.13,-25.5276 6.36,0 10.86,0.8359 14.02,1.9336 l 1.48,-9.4532 c -3.98,-1.6718 -9.58,-2.9687 -17.03,-2.9687 -9.01,0 -16.48,2.8359 -21.3,8.7539 -5.59,6.4844 -7.5,16.84 -7.5,29.434 v 78.046 h -20.83 v 9.899 h 20.83 v 22.695 l 12.2,4.504" /><path
         id="path34"
         style="fill:#100f0d;fill-opacity:1;fill-rule:nonzero;stroke:none"
         d="m 1110.53,92.7227 v 2.8789 h 1.92 c 0.96,0 2.02,-0.2149 2.02,-1.3594 0,-1.4297 -1.06,-1.5195 -2.26,-1.5195 z m 0,-1.1993 h 1.63 l 2.44,-4.0156 h 1.58 l -2.64,4.0977 c 1.37,0.1679 2.41,0.8828 2.41,2.539 0,1.8477 -1.1,2.6446 -3.28,2.6446 h -3.54 v -9.2813 h 1.4 v 4.0156" /><path
         id="path36"
         style="fill:#100f0d;fill-opacity:1;fill-rule:nonzero;stroke:none"
         d="m 1112.2,99.6289 c -4.15,0 -7.49,-3.3516 -7.49,-7.4961 0,-4.1289 3.34,-7.4609 7.49,-7.4609 4.12,0 7.48,3.332 7.48,7.4609 0,4.1445 -3.36,7.4961 -7.48,7.4961 z m 9.1,-7.4883 c 0,-5.0156 -4.08,-9.0898 -9.1,-9.0898 -5.02,0 -9.1,4.0742 -9.1,9.0898 0,5.0196 4.08,9.0974 9.1,9.0974 5.02,0 9.1,-4.0778 9.1,-9.0974" /><path
         id="path38"
         style="fill:#100f0d;fill-opacity:1;fill-rule:nonzero;stroke:none"
         d="m 745.289,138.426 c 0,-3.27 -0.234,-6.313 -0.945,-9.098 -3.141,-13.492 -14.176,-22.191 -26.93,-22.191 -19.633,0 -30.867,16.551 -30.867,39.207 0,22.883 11.137,40.59 31.223,40.59 14.019,0 24.058,-9.883 26.816,-21.895 0.531,-2.527 0.703,-5.641 0.703,-8.137 z m 0,56.57 h -0.516 c -5.515,9.109 -17.675,16.063 -34.554,16.063 -29.657,0 -55.477,-24.539 -55.289,-65.856 0,-37.906 23.324,-63.0194 52.773,-63.0194 17.797,0 32.672,8.4805 40.043,22.2934 h 0.555 l 1.398,-19.5278 h 27.781 c -0.574,8.3867 -1.027,21.9688 -1.027,34.5898 v 136.063 l -31.164,8.953 v -69.559" /><path
         id="path40"
         style="fill:#100f0d;fill-opacity:1;fill-rule:nonzero;stroke:none"
         d="m 858.906,211.203 c -9.39,0 -17.804,-2.711 -24.871,-7.07 -7.34,-4.301 -13.308,-10.934 -16.863,-17.805 h -0.492 v 57.715 l -12.211,3.508 V 84.9492 H 816.68 V 160.43 c 0,5.011 0.382,8.492 1.66,12.156 5.273,15.352 19.742,27.949 37.226,27.949 25.266,0 34.012,-20.262 34.012,-42.484 V 84.9492 h 12.199 v 74.4488 c 0,45.965 -31.172,51.805 -42.871,51.805" /></g></g></svg>