<?xml version="1.0" encoding="UTF-8" standalone="no"?>
<!-- Created with Inkscape (http://www.inkscape.org/) -->

<svg
   xmlns:dc="http://purl.org/dc/elements/1.1/"
   xmlns:cc="http://creativecommons.org/ns#"
   xmlns:rdf="http://www.w3.org/1999/02/22-rdf-syntax-ns#"
   xmlns:svg="http://www.w3.org/2000/svg"
   xmlns="http://www.w3.org/2000/svg"
   xmlns:sodipodi="http://sodipodi.sourceforge.net/DTD/sodipodi-0.dtd"
   xmlns:inkscape="http://www.inkscape.org/namespaces/inkscape"
   width="313.52222"
   height="99.289215"
   id="svg3041"
   version="1.1"
   inkscape:version="0.91 r13725"
   sodipodi:docname="conservancy-logo.svg"
   inkscape:export-filename="C:\shampoo\business\AdoboArt\commissions\SoftwareFreedomConservancy\samples\batch5\b5_logo9.png"
   inkscape:export-xdpi="102.62627"
   inkscape:export-ydpi="102.62627">
  <defs
     id="defs3043">
    <inkscape:perspective
       sodipodi:type="inkscape:persp3d"
       inkscape:vp_x="0 : 372.04724 : 1"
       inkscape:vp_y="0 : 1000 : 0"
       inkscape:vp_z="1052.3622 : 372.04724 : 1"
       inkscape:persp3d-origin="526.18109 : 248.03149 : 1"
       id="perspective331" />
    <inkscape:perspective
       id="perspective3452"
       inkscape:persp3d-origin="0.5 : 0.33333333 : 1"
       inkscape:vp_z="1 : 0.5 : 1"
       inkscape:vp_y="0 : 1000 : 0"
       inkscape:vp_x="0 : 0.5 : 1"
       sodipodi:type="inkscape:persp3d" />
    <inkscape:perspective
       id="perspective3470"
       inkscape:persp3d-origin="0.5 : 0.33333333 : 1"
       inkscape:vp_z="1 : 0.5 : 1"
       inkscape:vp_y="0 : 1000 : 0"
       inkscape:vp_x="0 : 0.5 : 1"
       sodipodi:type="inkscape:persp3d" />
  </defs>
  <sodipodi:namedview
     id="base"
     pagecolor="#ffffff"
     bordercolor="#666666"
     borderopacity="1.0"
     inkscape:pageopacity="0.0"
     inkscape:pageshadow="2"
     inkscape:zoom="0.96761906"
     inkscape:cx="524.32794"
     inkscape:cy="-226.24474"
     inkscape:document-units="px"
     inkscape:current-layer="layer1"
     showgrid="false"
     inkscape:window-width="1920"
     inkscape:window-height="1031"
     inkscape:window-x="0"
     inkscape:window-y="1"
     inkscape:window-maximized="1"
     showguides="true"
     inkscape:guide-bbox="true"
     fit-margin-top="0"
     fit-margin-left="0"
     fit-margin-right="0"
     fit-margin-bottom="0">
    <inkscape:grid
       type="xygrid"
       id="grid4285"
       empspacing="5"
       visible="true"
       enabled="true"
       snapvisiblegridlinesonly="true"
       originx="-1.85315"
       originy="-598.29198" />
  </sodipodi:namedview>
  <metadata
     id="metadata3046">
    <rdf:RDF>
      <cc:Work
         rdf:about="">
        <dc:format>image/svg+xml</dc:format>
        <dc:type
           rdf:resource="http://purl.org/dc/dcmitype/StillImage" />
        <dc:title></dc:title>
      </cc:Work>
    </rdf:RDF>
  </metadata>
  <g
     inkscape:label="Layer 1"
     inkscape:groupmode="layer"
     id="layer1"
     transform="translate(-1.85315,-2.4188053)">
    <g
       id="g4365"
       transform="matrix(0.38392529,0,0,0.38392529,-38.70203,-129.90129)">
      <path
         style="fill:#afe478;fill-opacity:1;fill-rule:evenodd;stroke:none"
         d="m 294.8728,344.65416 c -17.99591,0.20347 -32.91812,12.38231 -34.16415,28.45216 -0.13622,1.75558 -0.0824,3.47227 0.1076,5.17312 -5.89428,-1.88791 -12.25439,-3.14371 -18.9681,-3.66429 -29.235,-2.26687 -54.66561,10.5136 -60.46085,29.31434 -19.33453,6.26155 -34.68239,18.44021 -42.24714,34.05638 -17.1699,-0.89371 -32.07025,12.14704 -33.40974,29.42212 -1.36074,17.54933 11.69211,32.91384 29.20658,34.27192 5.54251,0.42975 10.89952,-0.64981 15.62713,-2.80211 13.6788,14.40097 34.76181,24.52877 58.95201,26.40447 21.79146,1.68968 42.02271,-3.65691 57.33542,-13.57944 6.04955,10.00137 17.2846,17.40024 30.7154,19.3992 l 0,0.32315 c 0.40102,-0.0393 0.78811,-0.16657 1.18551,-0.21555 0.40533,0.05 0.77641,0.1752 1.1855,0.21555 l 0,-0.32315 c 13.45167,-1.98865 24.65882,-9.38618 30.7154,-19.3992 15.31272,9.92253 35.65177,15.26916 57.44319,13.57944 24.1902,-1.87567 45.16545,-12.0035 58.84425,-26.40447 4.72765,2.1523 10.08465,3.23189 15.62714,2.80211 17.51446,-1.35805 30.67508,-16.72263 29.31434,-34.27192 -1.33949,-17.27508 -16.23983,-30.31583 -33.40973,-29.42212 -7.56476,-15.61617 -23.02039,-27.79483 -42.35493,-34.05638 -5.79524,-18.80074 -31.11807,-31.58121 -60.35307,-29.31434 -6.71371,0.52058 -13.07382,1.77638 -18.96811,3.66429 0.19003,-1.70085 0.24418,-3.41754 0.1076,-5.17312 -1.24603,-16.06985 -16.27601,-28.24858 -34.27192,-28.45216 -1.19975,-0.0138 -2.44085,0.0138 -3.66429,0.1076 -0.0724,0.007 -0.14381,-0.007 -0.21555,0 -0.0717,-0.007 -0.14312,0.007 -0.21554,0 -1.22345,-0.0948 -2.46455,-0.12174 -3.6643,-0.1076 z m 3.44874,21.55467 0.53887,0 c 3.05373,0 5.82187,0.85901 7.86746,2.37101 2.04558,1.512 3.34097,3.66581 3.34097,6.03531 0,0.6994 -0.21658,1.38874 -0.43109,2.04769 l 9.05296,6.68195 c 1.88349,-1.05553 4.06897,-1.72438 6.57417,-1.72438 3.0528,0 5.82159,0.86702 7.86745,2.37102 2.04587,1.504 3.44875,3.66591 3.44875,6.0353 0,1.55932 -0.75038,2.95413 -1.72437,4.20316 l 12.71725,9.26851 c 1.61046,-0.67375 3.41978,-1.07773 5.38867,-1.07773 3.05372,0 5.92967,0.85898 7.97522,2.37101 2.04556,1.51203 3.34098,3.66581 3.34098,6.03531 0,1.33808 -0.56249,2.55383 -1.29328,3.66429 l 12.07061,8.72964 c 1.62936,-0.69337 3.49886,-1.18551 5.49644,-1.18551 3.05373,0 5.8219,0.85898 7.86746,2.37102 2.04555,1.51203 3.34097,3.66591 3.34097,6.03531 0,2.36949 -1.29542,4.5233 -3.34097,6.0353 -2.04556,1.512 -4.81373,2.37102 -7.86746,2.37102 -3.05372,0 -5.82186,-0.85902 -7.86745,-2.37102 -2.04559,-1.512 -3.44875,-3.66581 -3.44875,-6.0353 0,-1.82915 0.96593,-3.48283 2.26324,-4.84981 l -11.3162,-8.29854 c -1.96037,1.23744 -4.48534,2.04769 -7.22081,2.04769 -2.494,0 -4.69747,-0.67813 -6.57418,-1.72437 l -9.05296,6.57417 c 0.78087,0.95272 1.4531,1.98296 1.72438,3.12543 0.0904,0.38081 0.1076,0.78066 0.1076,1.1855 0,2.3694 -1.29542,4.52328 -3.34098,6.03531 -1.02276,0.756 -2.22706,1.4284 -3.55652,1.83215 -0.66471,0.20175 -1.3268,0.32694 -2.04769,0.43109 -0.72089,0.10415 -1.49983,0.1076 -2.26324,0.1076 -2.40153,0 -4.63011,-0.5329 -6.4664,-1.50882 l -12.71725,9.37628 c 1.31083,1.10508 2.28555,2.56007 2.69433,4.09538 0.13623,0.51176 0.21555,0.96755 0.21555,1.50883 0,2.36939 -1.29542,4.4155 -3.34098,5.92753 -0.51138,0.37802 -1.02172,0.77449 -1.6166,1.07774 -1.18978,0.60653 -2.54579,1.06476 -3.98761,1.29328 -0.72089,0.11415 -1.49983,0.1076 -2.26324,0.1076 -3.05373,0 -5.8219,-0.96675 -7.86745,-2.47879 -1.02276,-0.75603 -1.89923,-1.58987 -2.47879,-2.58656 -0.28969,-0.49834 -0.49324,-1.06794 -0.64664,-1.6166 -0.15347,-0.54866 -0.21555,-1.13202 -0.21555,-1.72437 0,-2.36939 1.29542,-4.52331 3.34098,-6.03531 2.04555,-1.512 4.81372,-2.47879 7.86745,-2.47879 1.52445,0 2.98303,0.33729 4.31093,0.75442 l 13.68722,-9.91515 c -0.48897,-0.62305 -0.87667,-1.24051 -1.18551,-1.93992 -0.30901,-0.69941 -0.53887,-1.48068 -0.53887,-2.26324 0,-2.3695 1.29511,-4.53134 3.34098,-6.03531 0.51145,-0.37598 1.02162,-0.67719 1.6166,-0.96996 1.78493,-0.87832 3.96126,-1.40105 6.25085,-1.40105 2.29569,0 4.35028,0.60977 6.14308,1.50883 l 9.26851,-6.68195 c -0.4521,-0.60405 -0.89437,-1.25462 -1.18551,-1.93992 -0.29107,-0.6853 -0.43109,-1.40533 -0.43109,-2.15547 0,-1.85332 1.04193,-3.47037 2.37101,-4.8498 l -12.50171,-9.16073 c -1.82535,0.95168 -3.99116,1.6166 -6.35862,1.6166 -2.6873,0 -5.06063,-0.74203 -7.00527,-1.93992 l -10.45401,7.65191 c 0.93402,1.00872 1.62556,2.1785 1.93992,3.44874 0.10484,0.42341 0.21554,0.84567 0.21554,1.29328 0,2.36946 -1.29542,4.52328 -3.34097,6.03531 -0.51138,0.37802 -1.11939,0.78459 -1.72437,1.07773 -1.21,0.58632 -2.52559,0.97721 -3.98762,1.18551 -0.73099,0.10415 -1.49982,0.1076 -2.26324,0.1076 -3.05372,0 -5.82189,-0.85898 -7.86745,-2.37101 -2.04555,-1.51204 -3.34097,-3.66585 -3.34097,-6.03531 0,-2.3695 1.29511,-4.53134 3.34097,-6.03531 2.04587,-1.50396 4.81466,-2.37101 7.86745,-2.37101 2.10463,0 4.12867,0.4214 5.81976,1.18551 l 10.88511,-7.97523 c -0.73538,-1.11546 -1.29328,-2.32311 -1.29328,-3.66429 0,-0.36526 0.0345,-0.72717 0.1076,-1.07774 0.22313,-1.05169 0.75704,-2.029 1.40105,-2.90988 l -8.19077,-6.0353 c -2.0807,1.86639 -5.07473,3.12542 -8.51409,3.12542 -2.86333,0 -5.43564,-1.02534 -7.43636,-2.37101 l -8.083,5.60421 c 0.7142,1.10319 1.18551,2.34581 1.18551,3.6643 0,2.36949 -1.29542,4.41553 -3.34098,5.92753 -2.04555,1.512 -4.81376,2.47879 -7.86745,2.47879 -2.03866,0 -3.94916,-0.46465 -5.60422,-1.18551 l -12.71725,8.62187 c 1.41637,1.40302 2.58656,3.03669 2.58656,4.95757 0,0.38629 -0.0207,0.81611 -0.1076,1.18551 -0.26038,1.10822 -0.89788,2.08576 -1.6166,3.01765 l 9.26851,6.68195 c 1.36953,-0.45024 2.83104,-0.75442 4.4187,-0.75442 3.0537,0 5.82187,0.96683 7.86746,2.47879 2.04559,1.51197 3.34097,3.55804 3.34097,5.92753 0,2.3695 -1.29538,4.52331 -3.34097,6.03531 -2.04559,1.512 -4.81373,2.47879 -7.86746,2.47879 -3.05369,0 -5.82955,-0.96634 -7.86745,-2.47879 -2.0379,-1.51245 -3.34097,-3.66705 -3.34097,-6.03531 0,-1.0858 0.24693,-2.09973 0.75441,-3.01765 0.25383,-0.45896 0.61467,-0.87836 0.96996,-1.29328 0.35529,-0.41492 0.74565,-0.81604 1.18551,-1.18551 l -8.5141,-6.25085 c -1.83083,0.96448 -3.97337,1.72437 -6.35862,1.72437 -2.95613,0 -5.63088,-1.05386 -7.65191,-2.47878 l -11.85507,8.19077 c 1.43175,1.12157 2.55573,2.5966 3.01766,4.20316 0.15381,0.53552 0.21554,1.04725 0.21554,1.6166 0,1.02966 -0.41388,1.90002 -0.86218,2.80211 l 10.45401,7.54413 c 1.40633,-0.47644 2.89084,-0.75441 4.52648,-0.75441 3.05369,0 5.92967,0.85901 7.97523,2.37101 2.04555,1.512 3.34097,3.66592 3.34097,6.03531 0,2.36949 -1.29511,4.53134 -3.34097,6.03531 -2.04587,1.50396 -4.92247,2.37101 -7.97523,2.37101 -1.52638,0 -2.98141,-0.13416 -4.31093,-0.53887 -0.66478,-0.20244 -1.34495,-0.46165 -1.93992,-0.75441 -0.59498,-0.2928 -1.10515,-0.70175 -1.6166,-1.07773 -2.04587,-1.50397 -3.34098,-3.66582 -3.34098,-6.03531 0,-2.11177 1.34074,-3.92095 3.01766,-5.38867 l -9.48406,-6.78972 c -2.04141,1.50652 -4.71109,2.58656 -7.75968,2.58656 -3.48785,0 -6.54434,-1.21427 -8.62187,-3.12543 l -11.20842,7.75968 c 0.54266,0.64482 1.05173,1.41916 1.40105,2.15547 0.17451,0.36816 0.33384,0.68654 0.43109,1.07774 0.0973,0.39119 0.1076,0.7712 0.1076,1.1855 0,2.36957 -1.2951,4.53131 -3.34097,6.03531 -0.51145,0.37598 -1.02162,0.78493 -1.6166,1.07773 -1.18995,0.58556 -2.54593,0.97593 -3.98761,1.18551 -0.72082,0.10484 -1.50007,0.1076 -2.26324,0.1076 -3.0528,0 -5.92936,-0.86702 -7.97523,-2.37101 -2.04586,-1.504 -3.34097,-3.66575 -3.34097,-6.03531 0,-2.36939 1.29542,-4.52331 3.34097,-6.03531 2.04556,-1.512 4.9215,-2.37101 7.97523,-2.37101 2.12794,0 4.00527,0.51238 5.71198,1.29328 l 12.60949,-8.62187 c -0.17899,-0.5718 -0.4311,-1.0906 -0.4311,-1.72437 0,-2.36939 1.29542,-4.52327 3.34098,-6.03531 2.04555,-1.51203 4.81376,-2.47879 7.86745,-2.47879 1.30211,0 2.60235,0.22969 3.77207,0.53887 l 1.72437,-1.29328 0.21555,-0.1076 11.42397,-7.75968 c -0.45327,-0.91357 -0.86219,-1.87557 -0.86219,-2.90988 0,-2.36939 1.29542,-4.52327 3.34098,-6.03531 2.04555,-1.51203 4.9215,-2.37101 7.97522,-2.37101 1.7331,0 3.26976,0.33073 4.74203,0.86219 l 1.50883,-0.96996 11.42397,-7.86746 c -1.10108,-1.29669 -2.04769,-2.74806 -2.04769,-4.4187 0,-2.3695 1.40288,-4.53135 3.44874,-6.03531 2.04587,-1.50396 4.81466,-2.37101 7.86746,-2.37101 2.61925,0 4.96937,0.68699 6.89749,1.83214 l 8.29855,-5.60421 c -0.54221,-0.98531 -0.96996,-2.09511 -0.96996,-3.2332 0,-2.36939 1.29542,-4.52327 3.34097,-6.03531 1.91102,-1.41257 4.61842,-2.1515 7.43636,-2.26324 l 0,-0.1076 z m 0.53887,3.55652 c -2.08904,0 -4.01627,0.6785 -5.28089,1.6166 -0.95272,0.70661 -1.58425,1.50965 -1.83215,2.37101 -0.0828,0.28728 -0.1076,0.5549 -0.1076,0.86219 0,0.92216 0.3535,1.80255 1.07774,2.58656 0.24141,0.26141 0.54462,0.51883 0.86218,0.75441 0.94847,0.70347 2.28945,1.274 3.77207,1.50883 0.4942,0.0783 0.98658,0.1076 1.50882,0.1076 2.08925,0 3.89857,-0.67599 5.17312,-1.6166 1.28032,-0.94499 1.93992,-2.12046 1.93992,-3.34098 0,-1.22013 -0.65967,-2.28841 -1.93992,-3.2332 -1.27455,-0.94075 -3.08387,-1.6166 -5.17312,-1.6166 z m -25.54228,15.41158 c -2.09014,0 -4.01537,0.5766 -5.28089,1.50883 -0.95365,0.70265 -1.5071,1.58587 -1.72437,2.47879 -0.0724,0.29762 -0.1076,0.55487 -0.1076,0.86218 0,0.92189 0.27589,1.80253 0.96996,2.58656 0.23141,0.26142 0.54462,0.51887 0.86218,0.75442 1.26462,0.93809 3.19182,1.50882 5.2809,1.50882 2.08918,0 3.89853,-0.56807 5.17312,-1.50882 1.28024,-0.94482 1.93992,-2.12071 1.93992,-3.34098 0,-1.22016 -0.6584,-2.40153 -1.93992,-3.34097 -1.27549,-0.93489 -3.08287,-1.50883 -5.17312,-1.50883 z m 51.94675,0 c -2.09008,0 -3.9076,0.5766 -5.17312,1.50883 -0.95365,0.70265 -1.58456,1.58587 -1.83215,2.47879 -0.0824,0.29762 -0.1076,0.55487 -0.1076,0.86218 0,0.92189 0.3535,1.80253 1.07773,2.58656 0.24142,0.26142 0.54463,0.51887 0.86219,0.75442 1.26462,0.93809 3.08408,1.50882 5.17312,1.50882 2.08925,0 4.00631,-0.56807 5.2809,-1.50882 1.28024,-0.94482 1.93992,-2.12071 1.93992,-3.34098 0,-1.22016 -0.6584,-2.40153 -1.93992,-3.34097 -1.27549,-0.93489 -3.19061,-1.50883 -5.2809,-1.50883 z m -26.62002,18.86034 c -2.09025,0 -3.8976,0.68161 -5.17311,1.6166 -0.9611,0.70444 -1.58691,1.51024 -1.83215,2.37101 -0.0817,0.28694 -0.1076,0.55715 -0.1076,0.86219 0,0.91536 0.35208,1.80011 1.07773,2.58656 0.24176,0.2621 0.54215,0.51821 0.86219,0.75441 0.95596,0.70558 2.2143,1.27466 3.66429,1.50883 0.48334,0.0779 0.98651,0.1076 1.50883,0.1076 2.08904,0 4.0163,-0.67847 5.28089,-1.6166 1.27028,-0.94213 1.93992,-2.11163 1.93992,-3.34097 0,-1.22903 -0.6684,-2.29653 -1.93992,-3.23321 -1.26552,-0.93236 -3.19078,-1.6166 -5.28089,-1.6166 z m -52.27006,1.93992 c -2.09011,0 -4.01545,0.68423 -5.28089,1.6166 -0.95365,0.70247 -1.58457,1.5858 -1.83215,2.47878 -0.0824,0.29763 -0.1076,0.55487 -0.1076,0.86219 0,0.92199 0.35349,1.83287 1.07773,2.58656 0.24141,0.25141 0.54463,0.41109 0.86219,0.64664 0.94847,0.70348 2.28945,1.274 3.77206,1.50883 0.49421,0.0783 0.98655,0.1076 1.50883,0.1076 2.08922,0 3.89853,-0.67589 5.17312,-1.6166 1.28031,-0.94499 1.93992,-2.01286 1.93992,-3.2332 0,-1.22017 -0.6584,-2.40154 -1.93992,-3.34097 -1.27552,-0.93489 -3.08287,-1.61661 -5.17312,-1.61661 z m 106.58783,0 c -2.09025,0 -3.8976,0.68171 -5.17312,1.6166 -0.96113,0.70458 -1.58691,1.58773 -1.83215,2.47878 -0.0817,0.29694 -0.1076,0.55715 -0.1076,0.86219 0,0.91523 0.35208,1.83035 1.07773,2.58656 0.24176,0.2521 0.54211,0.4104 0.86219,0.64664 0.95596,0.70555 2.2143,1.27462 3.66429,1.50883 0.48334,0.0779 0.98652,0.1076 1.50883,0.1076 2.08904,0 4.01624,-0.67865 5.28089,-1.6166 1.27028,-0.94216 1.93992,-2.00386 1.93992,-3.2332 0,-1.2292 -0.66843,-2.40433 -1.93992,-3.34097 -1.26548,-0.93241 -3.19078,-1.61661 -5.28089,-1.61661 z m -25.00342,17.67482 c -2.09014,0 -4.01541,0.68424 -5.28089,1.6166 -0.95365,0.70262 -1.5071,1.50838 -1.72437,2.37102 -0.0724,0.28762 -0.10761,0.5549 -0.10761,0.86218 0,0.92199 0.2759,1.80253 0.96996,2.58657 0.23142,0.26141 0.54463,0.51882 0.86219,0.75441 0.94848,0.70347 2.28945,1.274 3.77207,1.50883 0.4942,0.0783 0.98655,0.1076 1.50883,0.1076 2.08925,0 4.0063,-0.67603 5.28089,-1.6166 1.28031,-0.945 1.83215,-2.12064 1.83215,-3.34098 0,-1.22016 -0.55063,-2.29376 -1.83215,-3.2332 -1.27549,-0.93488 -3.19061,-1.6166 -5.28089,-1.6166 z m -58.41314,0.86219 c -2.08905,0 -3.90854,0.67865 -5.17312,1.6166 -0.95272,0.70679 -1.58429,1.58711 -1.83215,2.47879 -0.0828,0.29728 -0.1076,0.55483 -0.1076,0.86219 0,1.22916 0.66964,2.39881 1.93992,3.34097 0.94847,0.70358 2.21199,1.19658 3.66429,1.40105 0.4841,0.0683 0.98658,0.1076 1.50883,0.1076 2.08925,0 4.0063,-0.56807 5.28089,-1.50882 1.28025,-0.94482 1.93992,-2.12067 1.93992,-3.34098 0,-1.2203 -0.65964,-2.39601 -1.93992,-3.34097 -1.27459,-0.94075 -3.19164,-1.6166 -5.28089,-1.6166 z m 111.00653,1.07773 c -2.09011,0 -4.01541,0.68441 -5.28089,1.6166 -0.95365,0.70265 -1.5071,1.50842 -1.72438,2.37102 -0.0724,0.28762 -0.1076,0.55494 -0.1076,0.86219 0,0.92216 0.2759,1.80252 0.96996,2.58656 0.23141,0.26141 0.5446,0.51876 0.86219,0.75441 0.94844,0.70347 2.28942,1.274 3.77207,1.50883 0.4942,0.0783 0.98655,0.1076 1.50883,0.1076 2.08904,0 3.90849,-0.67861 5.17312,-1.6166 1.27041,-0.94258 1.93992,-2.11143 1.93992,-3.34098 0,-1.22896 -0.66841,-2.29635 -1.93992,-3.2332 -1.26552,-0.93223 -3.08301,-1.6166 -5.17312,-1.6166 z m -161.76778,0.32315 c -2.08904,0 -3.90849,0.67847 -5.17312,1.6166 -0.95271,0.70662 -1.58425,1.58712 -1.83214,2.47879 -0.0828,0.29728 -0.1076,0.55487 -0.1076,0.86219 0,0.92188 0.35332,1.83359 1.07773,2.58656 0.24141,0.25106 0.54432,0.41247 0.86219,0.64664 0.94909,0.6993 2.21202,1.27269 3.66429,1.50882 0.4841,0.0786 0.98631,0.1076 1.50883,0.1076 2.09014,0 4.01541,-0.68419 5.28089,-1.6166 1.27152,-0.93668 1.93992,-2.00403 1.93992,-3.2332 0,-1.2292 -0.66964,-2.39881 -1.93992,-3.34097 -1.26462,-0.93813 -3.19181,-1.6166 -5.28089,-1.6166 z m -29.0988,17.56706 c -2.08908,0 -4.01624,0.67861 -5.28089,1.6166 -0.95268,0.70658 -1.58425,1.58708 -1.83215,2.47878 -0.0828,0.29729 -0.1076,0.55487 -0.1076,0.86219 0,0.92161 0.35333,1.83349 1.07774,2.58656 0.24141,0.25107 0.54431,0.41244 0.86218,0.64664 0.94917,0.69916 2.28952,1.27266 3.77207,1.50883 0.49417,0.0786 0.98631,0.1076 1.50883,0.1076 2.09004,0 3.90756,-0.68437 5.17312,-1.6166 1.27151,-0.93685 1.93992,-2.00438 1.93992,-3.2332 0,-1.22934 -0.66968,-2.39885 -1.93992,-3.34098 -1.26466,-0.93799 -3.08408,-1.6166 -5.17312,-1.6166 z m 54.53331,0.53886 c -2.08908,0 -3.9085,0.67848 -5.17312,1.6166 -0.95271,0.70662 -1.58425,1.50966 -1.83215,2.37102 -0.0828,0.28728 -0.1076,0.55487 -0.1076,0.86218 0,0.61467 0.21279,1.26766 0.53887,1.83215 0.16313,0.28211 0.29728,0.49334 0.53887,0.75441 0.24141,0.26107 0.54431,0.52025 0.86218,0.75442 0.94913,0.69926 2.21203,1.27269 3.6643,1.50882 0.4841,0.0786 0.9863,0.1076 1.50882,0.1076 2.09022,0 4.00541,-0.68161 5.2809,-1.6166 1.28152,-0.9393 1.93992,-2.12066 1.93992,-3.34097 0,-1.22013 -0.65971,-2.28845 -1.93992,-3.2332 -1.27459,-0.94078 -3.19168,-1.6166 -5.2809,-1.6166 z m 56.25768,1.50883 c -2.09025,0 -3.8976,0.57394 -5.17312,1.50883 -0.9611,0.7044 -1.5869,1.5877 -1.83214,2.47878 -0.0817,0.29694 -0.1076,0.55718 -0.1076,0.86219 0,0.91537 0.35208,1.80007 1.07773,2.58656 0.24175,0.2621 0.54211,0.51817 0.86218,0.75441 1.27459,0.94072 3.08391,1.50883 5.17312,1.50883 2.08908,0 4.01631,-0.57087 5.2809,-1.50883 1.27027,-0.94216 1.83214,-2.11163 1.83214,-3.34097 0,-1.22882 -0.56059,-2.40416 -1.83214,-3.34097 -1.26549,-0.93227 -3.19082,-1.50883 -5.2809,-1.50883 z"
         id="path4367"
         inkscape:connector-curvature="0" />
      <path
         style="fill:#577632;fill-opacity:1;stroke:none"
         d="M 242.96875,155.625 272.625,178.84375 245.8125,179 230.9375,167.59375 216.28125,167.5 l 26.375,20.6875 0.3125,-0.21875 0,0.0625 41.09375,-0.21875 0.8125,0.625 -15.0625,82.59375 57.96875,0.4375 L 311.75,189.25 l 1.78125,-1.40625 41.125,0.21875 0,-0.0625 0.28125,0.21875 26.375,-20.6875 -14.65625,0.0937 -14.875,11.40625 -26.8125,-0.15625 29.6875,-23.21875 -15.90625,0.1875 -29.09375,22.6875 -2.09375,-10.8125 -18.875,-0.1875 -1.84375,10.09375 -27.96875,-21.8125 -15.90625,-0.1875 z"
         id="path4369"
         transform="translate(0,308.2677)"
         inkscape:connector-curvature="0" />
    </g>
    <g
       id="g3443"
       transform="translate(-660.38385,-524.99999)">
      <path
         id="flowRoot3023-5-6-2-5-9-7-4-5"
         transform="translate(0,308.2677)"
         d="m 790.28125,287.1875 c -2.67365,2e-5 -4.62784,0.93059 -5.90625,2.8125 -1.27842,1.88195 -1.9375,4.71548 -1.9375,8.53125 0,3.64706 0.68145,6.43057 2.03125,8.3125 1.3498,1.88193 3.32345,2.8125 5.90625,2.8125 1.6483,0 3.13721,-0.40637 4.5,-1.25 l 0,-4.5625 c -1.41471,0.90852 -2.76463,1.34375 -4.0625,1.34375 -1.09023,0 -1.86354,-0.54655 -2.34375,-1.65625 -0.48022,-1.10968 -0.71876,-2.7859 -0.71875,-5.03125 -10e-6,-2.29724 0.23204,-4.00761 0.71875,-5.15625 0.4867,-1.14861 1.27179,-1.71873 2.375,-1.71875 0.83064,2e-5 1.79774,0.30155 2.875,0.9375 l 1.46875,-4.03125 c -0.70087,-0.44126 -1.49245,-0.76636 -2.375,-1 -0.88257,-0.2336 -1.72657,-0.34373 -2.53125,-0.34375 z m 15.40625,0 c -2.64769,2e-5 -4.72619,0.9895 -6.21875,2.96875 -1.49257,1.97929 -2.21875,4.7015 -2.21875,8.21875 0,2.28429 0.34337,4.29329 1.03125,6 0.68788,1.70672 1.66557,3.02898 2.9375,3.9375 1.27192,0.90852 2.74495,1.34375 4.40625,1.34375 2.62171,0 4.68194,-0.98948 6.1875,-2.96875 1.50553,-1.97927 2.24998,-4.75629 2.25,-8.3125 -2e-5,-3.43938 -0.76923,-6.16927 -2.28125,-8.1875 -1.51205,-2.01819 -3.53693,-2.99998 -6.09375,-3 z m 22.125,0 c -1.16811,2e-5 -2.16168,0.27919 -3.03125,0.84375 -0.82163,0.53346 -1.47507,1.26593 -1.9375,2.1875 l 0,-2.65625 -5.125,0 0,0.0312 -0.0312,0 0,21.6875 5.1875,0 0,-10.4375 c -10e-6,-2.63469 0.26209,-4.48404 0.78125,-5.59375 0.51915,-1.10967 1.35256,-1.68748 2.46875,-1.6875 0.84361,2e-5 1.4361,0.41408 1.8125,1.21875 0.37637,0.8047 0.56249,1.99207 0.5625,3.5625 l 0,12.9375 5.21875,0 0,-14.15625 c -2e-5,-2.59575 -0.48886,-4.58768 -1.46875,-5.9375 -0.97992,-1.34978 -2.46473,-1.99998 -4.4375,-2 z m 15.4375,0 c -1.82769,0.11784 -3.299,0.65118 -4.40625,1.59375 -1.26544,1.07726 -1.90625,2.53202 -1.90625,4.375 0,1.44067 0.34986,2.69224 1.03125,3.75 0.68139,1.05779 1.80456,2.06553 3.375,3 1.18107,0.71385 1.99621,1.31931 2.4375,1.8125 0.44127,0.4932 0.65624,1.05684 0.65625,1.71875 -10e-6,0.64895 -0.23445,1.1979 -0.65625,1.59375 -0.42182,0.39586 -1.00782,0.59375 -1.8125,0.59375 -0.72682,0 -1.57731,-0.17552 -2.53125,-0.5 -0.95395,-0.32447 -1.78617,-0.72555 -2.5,-1.21875 l 0,4.5 c 1.40171,0.84363 3.17099,1.25 5.3125,1.25 2.41406,0 4.22926,-0.59369 5.46875,-1.78125 1.23947,-1.18756 1.87499,-2.82194 1.875,-4.9375 -10e-6,-0.97341 -0.17025,-1.83568 -0.46875,-2.5625 -0.29853,-0.72681 -0.7049,-1.36642 -1.25,-1.9375 -0.54512,-0.57106 -1.49396,-1.27607 -2.84375,-2.09375 -1.11619,-0.67489 -1.87242,-1.23323 -2.28125,-1.6875 -0.40884,-0.45424 -0.62501,-0.97844 -0.625,-1.5625 -10e-6,-0.50616 0.16903,-0.9308 0.5,-1.28125 0.33095,-0.35041 0.83807,-0.53123 1.5,-0.53125 1.05128,2e-5 2.2675,0.37224 3.65625,1.125 l 1.6875,-3.71875 c -1.70024,-1.01233 -3.51664,-1.49998 -5.4375,-1.5 -0.2758,0 -0.52015,-0.0168 -0.78125,0 z m 16.9375,0 c -2.53088,2e-5 -4.52281,0.9883 -5.9375,3 -1.4147,2.01174 -2.125,4.8241 -2.125,8.40625 0,3.53025 0.81105,6.26015 2.375,8.1875 1.56395,1.92736 3.69366,2.875 6.40625,2.875 2.3232,0 4.30744,-0.50063 5.96875,-1.5 l 0,-4.25 c -1.76514,1.05129 -3.50026,1.5625 -5.1875,1.5625 -1.32385,0 -2.34099,-0.46528 -3.09375,-1.40625 -0.75278,-0.94096 -1.14857,-2.37864 -1.1875,-4.3125 l 10.40625,0 0,-2.75 c -2e-5,-3.10193 -0.66849,-5.53028 -2.03125,-7.25 -1.36279,-1.71968 -3.23161,-2.56248 -5.59375,-2.5625 z m 20.34375,0 c -0.89555,2e-5 -1.70011,0.29097 -2.375,0.875 -0.67491,0.58407 -1.27269,1.54349 -1.84375,2.90625 l -0.1875,0 -0.59375,-3.375 -4.25,0 0,21.6875 5.1875,0 0,-11.15625 c -10e-6,-1.8949 0.32509,-3.35085 1,-4.34375 0.67489,-0.99287 1.64729,-1.49998 2.90625,-1.5 0.58404,2e-5 1.04283,0.089 1.40625,0.21875 l 0.625,-5.03125 c -0.61002,-0.19466 -1.23905,-0.28123 -1.875,-0.28125 z m -20.40625,3.96875 c 0.7917,2e-5 1.42073,0.43235 1.875,1.25 0.45425,0.81768 0.69278,2.01035 0.71875,3.59375 l -5.25,0 c 0.0779,-1.6483 0.36353,-2.87101 0.84375,-3.65625 0.48021,-0.7852 1.0727,-1.18748 1.8125,-1.1875 z M 805.25,291.625 c 0.12695,-0.0175 0.26997,0 0.40625,0 1.07723,2e-5 1.84405,0.56485 2.34375,1.6875 0.49967,1.12269 0.74999,2.79121 0.75,5.0625 -10e-6,4.56856 -1.01715,6.875 -3.09375,6.875 -1.09023,0 -1.88181,-0.59488 -2.375,-1.75 -0.4932,-1.15511 -0.75001,-2.86667 -0.75,-5.125 -10e-6,-2.27129 0.2568,-3.93981 0.75,-5.0625 0.43154,-0.98232 1.0801,-1.5647 1.96875,-1.6875 z"
         style="font-style:normal;font-variant:normal;font-weight:bold;font-stretch:normal;font-size:48px;line-height:125%;font-family:'Open Sans Condensed';-inkscape-font-specification:'Open Sans Condensed, Bold';text-align:start;letter-spacing:0px;word-spacing:0px;writing-mode:lr-tb;text-anchor:start;fill:#577632;fill-opacity:1;stroke:none"
         inkscape:connector-curvature="0" />
      <path
         id="flowRoot3023-5-6-2-5-9-7-1-4-1"
         transform="translate(0,308.2677)"
         d="m 912.25,287.1875 c -2.53088,2e-5 -4.87677,0.66849 -7.03125,2.03125 L 907,292.8125 c 1.68724,-1.01233 3.17086,-1.53123 4.46875,-1.53125 1.75213,2e-5 2.65624,1.00657 2.65625,3.03125 l 0,1.5625 -2.90625,0.125 c -2.49194,0.11682 -4.3413,0.73407 -5.59375,1.84375 -1.25246,1.1097 -1.875,2.80948 -1.875,5.09375 0,2.12854 0.42874,3.7747 1.34375,4.96875 0.91501,1.19405 2.18485,1.78125 3.78125,1.78125 1.24596,0 2.27607,-0.23853 3.09375,-0.71875 0.81766,-0.48022 1.60924,-1.35307 2.375,-2.625 l 0.125,0 1.03125,2.96875 3.78125,0 0,-14.5625 c -2e-5,-2.41405 -0.58072,-4.27638 -1.78125,-5.59375 -1.20056,-1.31733 -2.95276,-1.96873 -5.25,-1.96875 z m 21.34375,0.0312 c -1.16811,2e-5 -2.19293,0.27919 -3.0625,0.84375 -0.85122,0.55267 -1.50307,1.31201 -1.96875,2.28125 l 0,-2.78125 -5.125,0 0,11.65625 0.0312,0 0,10.09375 5.1875,0 0,-10.40625 c -10e-6,-2.63469 0.26209,-4.51529 0.78125,-5.625 0.51915,-1.10967 1.32131,-1.65623 2.4375,-1.65625 0.84361,2e-5 1.46735,0.38283 1.84375,1.1875 0.37637,0.8047 0.56249,1.99207 0.5625,3.5625 l 0,12.9375 5.21875,0 0,-14.15625 c -2e-5,-2.59575 -0.48886,-4.55643 -1.46875,-5.90625 -0.97992,-1.34978 -2.46473,-2.03123 -4.4375,-2.03125 z m 17.21875,0 c -2.67365,2e-5 -4.65909,0.93059 -5.9375,2.8125 -1.27842,1.88195 -1.90625,4.74673 -1.90625,8.5625 0,3.64706 0.68145,6.39932 2.03125,8.28125 1.3498,1.88193 3.2922,2.8125 5.875,2.8125 1.6483,0 3.16846,-0.40637 4.53125,-1.25 l 0,-4.5625 c -1.41471,0.90852 -2.76463,1.375 -4.0625,1.375 -1.09023,0 -1.89479,-0.5778 -2.375,-1.6875 -0.48022,-1.10968 -0.71876,-2.7859 -0.71875,-5.03125 -10e-6,-2.29724 0.26329,-4.00761 0.75,-5.15625 0.4867,-1.14861 1.27179,-1.71873 2.375,-1.71875 0.83064,2e-5 1.79774,0.30155 2.875,0.9375 l 1.46875,-4.03125 c -0.70087,-0.44126 -1.49245,-0.76636 -2.375,-1 -0.88257,-0.2336 -1.72657,-0.34373 -2.53125,-0.34375 z m -65.90625,0.40625 5.65625,21.6875 6.4375,0 5.6875,-21.6875 -5.375,0 c -1.89492,8.63095 -2.89618,13.23375 -3,13.84375 -0.10384,0.61001 -0.21517,1.30444 -0.3125,2.03125 -0.0974,0.72682 -0.14328,1.26689 -0.15625,1.65625 l -0.0625,0 c -0.0389,-0.49319 -0.15027,-1.28357 -0.3125,-2.40625 -0.16224,-1.12266 -0.3207,-1.97844 -0.4375,-2.5625 l -2.75,-12.5625 -5.375,0 z m 29.21875,11.53125 0,1.8125 c -10e-6,1.4147 -0.31043,2.55614 -0.875,3.40625 -0.56459,0.85012 -1.30255,1.28125 -2.25,1.28125 -1.27193,0 -1.90626,-0.89641 -1.90625,-2.6875 -10e-6,-1.20703 0.26089,-2.10874 0.8125,-2.71875 0.55159,-0.61 1.41267,-0.96635 2.59375,-1.03125 l 1.625,-0.0625 z"
         style="font-style:normal;font-variant:normal;font-weight:bold;font-stretch:normal;font-size:48px;line-height:125%;font-family:'Open Sans Condensed';-inkscape-font-specification:'Open Sans Condensed, Bold';text-align:start;letter-spacing:0px;word-spacing:0px;writing-mode:lr-tb;text-anchor:start;fill:#577632;fill-opacity:1;stroke:none"
         inkscape:connector-curvature="0" />
      <g
         transform="matrix(0.8306463,0,0,0.8306463,1795.7434,-128.90577)"
         style="font-style:normal;font-variant:normal;font-weight:bold;font-stretch:normal;font-size:48px;line-height:125%;font-family:'Open Sans Condensed';-inkscape-font-specification:'Open Sans Condensed, Bold';text-align:start;letter-spacing:0px;word-spacing:0px;writing-mode:lr-tb;text-anchor:start;fill:#577632;fill-opacity:1;stroke:none"
         id="flowRoot3023-5-6-2-5-9-7-1-5-1-3">
        <path
           d="m -1008.5625,872.02908 6.4688,0 3.60933,14.74219 c 0.35936,1.31251 0.64842,3.14845 0.86718,5.50781 l 0.14063,0 c 0.0156,-0.37499 0.0859,-1.04296 0.21094,-2.0039 0.12498,-0.96093 0.22655,-1.71484 0.30468,-2.26172 0.0781,-0.54687 1.15624,-5.87499 3.23438,-15.98438 l 6.5625,0 -7.47656,27.98438 c -0.90627,3.43749 -2.10939,5.90624 -3.60938,7.40625 -1.50001,1.49999 -3.5,2.24999 -6,2.25 -1.2344,-10e-6 -2.3359,-0.13283 -3.3047,-0.39844 l 0,-5.22656 c 0.6406,0.18749 1.3594,0.28124 2.1563,0.28125 2.0937,-10e-6 3.4687,-1.37501 4.125,-4.125 l 0.4453,-1.64063 z"
           id="path3407"
           inkscape:connector-curvature="0" />
      </g>
    </g>
    <g
       transform="matrix(0.57050433,0,0,0.57050433,757.16395,-369.8017)"
       style="font-style:normal;font-variant:normal;font-weight:300;font-stretch:normal;font-size:48px;line-height:125%;font-family:'Open Sans Condensed Light';-inkscape-font-specification:'Open Sans Condensed Light, Light';text-align:start;letter-spacing:0px;word-spacing:0px;writing-mode:lr-tb;text-anchor:start;fill:#577632;fill-opacity:1;stroke:none"
       id="flowRoot3013-0-3-7-9-7-8-1-7">
      <path
         d="m -1032.3359,754.60721 c -10e-5,2.14063 -0.5626,3.81641 -1.6875,5.02734 -1.125,1.21094 -2.75,1.81641 -4.875,1.81641 -1.1563,0 -2.1719,-0.14844 -3.0469,-0.44531 -0.875,-0.29688 -1.5547,-0.625 -2.0391,-0.98438 l 0,-2.60156 c 0.5781,0.57813 1.3438,1.04297 2.2969,1.39453 0.9531,0.35156 1.9297,0.52734 2.9297,0.52734 1.3125,0 2.3437,-0.42968 3.0937,-1.28906 0.75,-0.85937 1.125,-2.00781 1.125,-3.44531 0,-1.12499 -0.2695,-2.07421 -0.8086,-2.84766 -0.539,-0.77343 -1.5664,-1.65233 -3.082,-2.63672 -1.7344,-1.09373 -2.918,-1.96873 -3.5508,-2.625 -0.6328,-0.65623 -1.125,-1.39061 -1.4765,-2.20312 -0.3516,-0.81248 -0.5274,-1.78123 -0.5274,-2.90625 0,-1.82811 0.6172,-3.33982 1.8516,-4.53516 1.2344,-1.19529 2.8047,-1.79294 4.7109,-1.79297 2.0469,3e-5 3.7578,0.4844 5.1328,1.45313 l -1.1484,1.94531 c -1.2813,-0.85935 -2.6406,-1.28904 -4.0781,-1.28906 -1.3125,2e-5 -2.3594,0.38674 -3.1407,1.16015 -0.7812,0.77346 -1.1718,1.79299 -1.1718,3.0586 0,1.12502 0.2656,2.06642 0.7968,2.82422 0.5313,0.75783 1.6563,1.67579 3.375,2.7539 1.6875,1.10939 2.8438,1.99611 3.4688,2.66016 0.625,0.66407 1.0898,1.39845 1.3945,2.20312 0.3047,0.8047 0.457,1.73048 0.4571,2.77735 z"
         id="path3376"
         inkscape:connector-curvature="0" />
      <path
         d="m -1012.9062,748.20877 c -10e-5,4.28126 -0.6758,7.5586 -2.0274,9.83203 -1.3516,2.27344 -3.2852,3.41016 -5.8008,3.41016 -2.4844,0 -4.3867,-1.13672 -5.707,-3.41016 -1.3203,-2.27343 -1.9805,-5.55077 -1.9805,-9.83203 0,-8.7656 2.5938,-13.14841 7.7813,-13.14844 2.4375,3e-5 4.3359,1.14847 5.6953,3.44532 1.3593,2.29689 2.039,5.53126 2.0391,9.70312 z m -13.1954,0 c 0,3.67188 0.4375,6.44532 1.3125,8.32031 0.875,1.87501 2.2422,2.8125 4.1016,2.8125 3.6406,0 5.4609,-3.71093 5.4609,-11.13281 0,-7.35935 -1.8203,-11.03904 -5.4609,-11.03906 -1.9063,2e-5 -3.2852,0.9219 -4.1367,2.76562 -0.8516,1.84377 -1.2774,4.60158 -1.2774,8.27344 z"
         id="path3378"
         inkscape:connector-curvature="0" />
      <path
         d="m -1000.7656,737.52127 -3.9844,0 0,23.46094 -2.2031,0 0,-23.46094 -3.2344,0 0,-1.26562 3.2344,-0.96094 0,-1.92188 c 0,-3.23434 0.3828,-5.56246 1.1484,-6.98437 0.7656,-1.42184 2.0938,-2.13278 3.9844,-2.13281 1.0937,3e-5 2.08591,0.19534 2.97655,0.58593 l -0.77344,2.0625 c -0.82811,-0.39059 -1.57811,-0.5859 -2.25001,-0.58593 -0.7656,3e-5 -1.3437,0.22659 -1.7344,0.67968 -0.3906,0.45316 -0.6797,1.18754 -0.8671,2.20313 -0.1876,1.01565 -0.2813,2.4219 -0.2813,4.21875 l 0,2.13281 3.9844,0 z"
         id="path3380"
         inkscape:connector-curvature="0" />
      <path
         d="m -992,759.38846 c 0.68749,0 1.29687,-0.0937 1.82813,-0.28125 l 0,1.875 c -0.68751,0.3125 -1.57033,0.46875 -2.64844,0.46875 -2.62501,0 -3.93751,-1.96094 -3.9375,-5.88281 l 0,-18.04688 -2.29688,0 0,-1.3125 2.25,-0.65625 0.72657,-6.04687 1.54687,0 0,6.04687 4.03125,0 0,1.96875 -4.03125,0 0,17.41406 c -10e-6,1.71876 0.18749,2.89063 0.5625,3.51563 0.37499,0.625 1.03124,0.9375 1.96875,0.9375 z"
         id="path3382"
         inkscape:connector-curvature="0" />
      <path
         d="m -972.03125,760.98221 -3.51562,-17.22656 c -0.0313,-0.12499 -0.0586,-0.2578 -0.082,-0.39844 -0.0235,-0.14061 -0.26954,-1.64061 -0.73828,-4.5 l -0.0469,0 -0.32813,1.99219 -0.53906,2.90625 -3.63281,17.22656 -2.64844,0 -5.53125,-25.42969 2.22656,0 3.16407,14.8125 1.47656,7.73438 0.14062,0 c 0.28124,-2.23437 0.73437,-4.82812 1.35938,-7.78125 l 3.16406,-14.76563 2.34375,0 3.1875,14.8125 c 0.24998,1.10939 0.69529,3.68751 1.33594,7.73438 l 0.14062,0 c 0.0469,-0.51563 0.27733,-1.8125 0.69141,-3.89063 0.41404,-2.07812 1.73826,-8.29686 3.97266,-18.65625 l 2.20312,0 -5.71875,25.42969 z"
         id="path3384"
         inkscape:connector-curvature="0" />
      <path
         d="m -949.97656,760.98221 -0.28125,-3.5625 -0.0937,0 c -1.21876,2.6875 -3.06251,4.03125 -5.53125,4.03125 -1.65626,0 -2.98829,-0.66016 -3.9961,-1.98047 -1.00781,-1.32031 -1.51172,-3.08984 -1.51171,-5.30859 -10e-6,-2.42187 0.72655,-4.33984 2.17968,-5.75391 1.45312,-1.41405 3.49218,-2.18358 6.11719,-2.30859 l 2.74219,-0.14063 0,-2.10937 c -2e-5,-2.37498 -0.29689,-4.10545 -0.89063,-5.19141 -0.59376,-1.08591 -1.57813,-1.62888 -2.95312,-1.62891 -1.45314,3e-5 -2.93751,0.47659 -4.45313,1.42969 l -0.96093,-1.75781 c 1.76561,-1.09373 3.61718,-1.6406 5.55468,-1.64063 2.09374,3e-5 3.60155,0.66018 4.52344,1.98047 0.92186,1.32034 1.3828,3.52737 1.38281,6.6211 l 0,17.32031 z m -5.41406,-1.42969 c 1.59374,0 2.83202,-0.78515 3.71484,-2.35547 0.8828,-1.57031 1.3242,-3.79296 1.32422,-6.66797 l 0,-2.64843 -2.64844,0.14062 c -2.04688,0.10939 -3.56641,0.67579 -4.55859,1.69922 -0.9922,1.02345 -1.48829,2.51954 -1.48828,4.48828 -10e-6,1.84376 0.32812,3.19532 0.98437,4.05469 0.65624,0.85937 1.54687,1.28906 2.67188,1.28906 z"
         id="path3386"
         inkscape:connector-curvature="0" />
      <path
         d="m -934.39062,735.06033 c 0.79686,3e-5 1.53905,0.1094 2.22656,0.32813 l -0.53906,2.22656 c -0.56252,-0.23435 -1.14064,-0.35154 -1.73438,-0.35156 -0.85938,2e-5 -1.66016,0.44143 -2.40234,1.32422 -0.7422,0.88283 -1.32423,2.1133 -1.7461,3.6914 -0.42188,1.57815 -0.63282,3.32033 -0.63281,5.22657 l 0,13.47656 -2.22656,0 0,-25.42969 1.82812,0 0.23438,4.45313 0.16406,0 c 1.18749,-3.29686 2.79687,-4.94529 4.82813,-4.94532 z"
         id="path3388"
         inkscape:connector-curvature="0" />
      <path
         d="m -921.10156,761.45096 c -2.68751,0 -4.75391,-1.14453 -6.19922,-3.4336 -1.44532,-2.28905 -2.16797,-5.48046 -2.16797,-9.57421 0,-4.34374 0.64453,-7.66014 1.93359,-9.94922 1.28906,-2.28904 3.14453,-3.43357 5.56641,-3.4336 2.10936,3e-5 3.77342,1.00393 4.99219,3.01172 1.21873,2.00784 1.82811,4.71486 1.82812,8.1211 l 0,2.0625 -12.04687,0 c 0.0312,3.70313 0.55468,6.47656 1.57031,8.32031 1.01562,1.84375 2.55468,2.76562 4.61719,2.76562 1.59374,0 3.27342,-0.52343 5.03906,-1.57031 l 0,2.15625 c -1.62501,1.01563 -3.33595,1.52344 -5.13281,1.52344 z m -1.00781,-24.375 c -3.06251,2e-5 -4.7422,3.05471 -5.03907,9.16406 l 9.77344,0 c -10e-6,-2.79686 -0.4258,-5.02342 -1.27734,-6.67969 -0.85158,-1.65622 -2.00392,-2.48435 -3.45703,-2.48437 z"
         id="path3390"
         inkscape:connector-curvature="0" />
      <path
         d="m -893.98437,737.52127 -3.98438,0 0,23.46094 -2.20312,0 0,-23.46094 -3.23438,0 0,-1.26562 3.23438,-0.96094 0,-1.92188 c -10e-6,-3.23434 0.3828,-5.56246 1.14843,-6.98437 0.76562,-1.42184 2.09375,-2.13278 3.98438,-2.13281 1.09374,3e-5 2.08592,0.19534 2.97656,0.58593 l -0.77344,2.0625 c -0.82813,-0.39059 -1.57813,-0.5859 -2.25,-0.58593 -0.76563,3e-5 -1.34375,0.22659 -1.73437,0.67968 -0.39063,0.45316 -0.6797,1.18754 -0.86719,2.20313 -0.18751,1.01565 -0.28126,2.4219 -0.28125,4.21875 l 0,2.13281 3.98438,0 z"
         id="path3392"
         inkscape:connector-curvature="0" />
      <path
         d="m -882.82812,735.06033 c 0.79686,3e-5 1.53905,0.1094 2.22656,0.32813 l -0.53906,2.22656 c -0.56252,-0.23435 -1.14064,-0.35154 -1.73438,-0.35156 -0.85938,2e-5 -1.66016,0.44143 -2.40234,1.32422 -0.7422,0.88283 -1.32423,2.1133 -1.7461,3.6914 -0.42188,1.57815 -0.63282,3.32033 -0.63281,5.22657 l 0,13.47656 -2.22656,0 0,-25.42969 1.82812,0 0.23438,4.45313 0.16406,0 c 1.18749,-3.29686 2.79687,-4.94529 4.82813,-4.94532 z"
         id="path3394"
         inkscape:connector-curvature="0" />
      <path
         d="m -869.53906,761.45096 c -2.68751,0 -4.75391,-1.14453 -6.19922,-3.4336 -1.44532,-2.28905 -2.16797,-5.48046 -2.16797,-9.57421 0,-4.34374 0.64453,-7.66014 1.93359,-9.94922 1.28906,-2.28904 3.14453,-3.43357 5.56641,-3.4336 2.10936,3e-5 3.77342,1.00393 4.99219,3.01172 1.21873,2.00784 1.82811,4.71486 1.82812,8.1211 l 0,2.0625 -12.04687,0 c 0.0312,3.70313 0.55468,6.47656 1.57031,8.32031 1.01562,1.84375 2.55468,2.76562 4.61719,2.76562 1.59374,0 3.27342,-0.52343 5.03906,-1.57031 l 0,2.15625 c -1.62501,1.01563 -3.33595,1.52344 -5.13281,1.52344 z m -1.00781,-24.375 c -3.06251,2e-5 -4.7422,3.05471 -5.03907,9.16406 l 9.77344,0 c -10e-6,-2.79686 -0.4258,-5.02342 -1.27734,-6.67969 -0.85158,-1.65622 -2.00392,-2.48435 -3.45703,-2.48437 z"
         id="path3396"
         inkscape:connector-curvature="0" />
      <path
         d="m -850.69531,761.45096 c -2.68751,0 -4.75391,-1.14453 -6.19922,-3.4336 -1.44532,-2.28905 -2.16797,-5.48046 -2.16797,-9.57421 0,-4.34374 0.64453,-7.66014 1.93359,-9.94922 1.28906,-2.28904 3.14453,-3.43357 5.56641,-3.4336 2.10936,3e-5 3.77342,1.00393 4.99219,3.01172 1.21873,2.00784 1.82811,4.71486 1.82812,8.1211 l 0,2.0625 -12.04687,0 c 0.0312,3.70313 0.55468,6.47656 1.57031,8.32031 1.01562,1.84375 2.55468,2.76562 4.61719,2.76562 1.59374,0 3.27342,-0.52343 5.03906,-1.57031 l 0,2.15625 c -1.62501,1.01563 -3.33595,1.52344 -5.13281,1.52344 z m -1.00781,-24.375 c -3.06251,2e-5 -4.7422,3.05471 -5.03907,9.16406 l 9.77344,0 c -10e-6,-2.79686 -0.4258,-5.02342 -1.27734,-6.67969 -0.85158,-1.65622 -2.00392,-2.48435 -3.45703,-2.48437 z"
         id="path3398"
         inkscape:connector-curvature="0" />
      <path
         d="m -832.85937,761.45096 c -4.93751,0 -7.40626,-4.38281 -7.40625,-13.14844 -10e-6,-4.31248 0.61718,-7.59764 1.85156,-9.85547 1.23437,-2.25779 3.05468,-3.38669 5.46094,-3.38672 1.14061,3e-5 2.22264,0.32815 3.24609,0.98438 1.02342,0.65627 1.83983,1.56252 2.44922,2.71875 l 0.1875,0 -0.0937,-2.83594 0,-11.41406 2.22656,0 0,36.46875 -1.82812,0 -0.1875,-3.5625 -0.21094,0 c -0.60939,1.29688 -1.39845,2.29297 -2.36719,2.98828 -0.96876,0.69531 -2.07814,1.04297 -3.32812,1.04297 z m 0.14062,-1.94531 c 1.78124,0 3.15233,-0.82422 4.11328,-2.47266 0.96092,-1.64843 1.44139,-4.07421 1.44141,-7.27734 l 0,-1.45313 c -2e-5,-3.84373 -0.46486,-6.66014 -1.39453,-8.44922 -0.9297,-1.78904 -2.34767,-2.68357 -4.25391,-2.68359 -1.82813,2e-5 -3.14063,0.95705 -3.9375,2.87109 -0.79688,1.91408 -1.19532,4.68361 -1.19531,8.3086 -1e-5,3.65625 0.41406,6.42969 1.24219,8.32031 0.82811,1.89063 2.15624,2.83594 3.98437,2.83594 z"
         id="path3400"
         inkscape:connector-curvature="0" />
      <path
         d="m -803.84375,748.20877 c -2e-5,4.28126 -0.6758,7.5586 -2.02734,9.83203 -1.35158,2.27344 -3.28517,3.41016 -5.80078,3.41016 -2.48439,0 -4.38673,-1.13672 -5.70704,-3.41016 -1.32031,-2.27343 -1.98047,-5.55077 -1.98046,-9.83203 -10e-6,-8.7656 2.59374,-13.14841 7.78125,-13.14844 2.43748,3e-5 4.33592,1.14847 5.69531,3.44532 1.35936,2.29689 2.03904,5.53126 2.03906,9.70312 z m -13.19531,0 c -1e-5,3.67188 0.43749,6.44532 1.3125,8.32031 0.87499,1.87501 2.24218,2.8125 4.10156,2.8125 3.64061,0 5.46092,-3.71093 5.46094,-11.13281 -2e-5,-7.35935 -1.82033,-11.03904 -5.46094,-11.03906 -1.90626,2e-5 -3.28516,0.9219 -4.13672,2.76562 -0.85157,1.84377 -1.27735,4.60158 -1.27734,8.27344 z"
         id="path3402"
         inkscape:connector-curvature="0" />
      <path
         d="m -776.58594,760.98221 0,-17.32031 c -2e-5,-4.26561 -1.25002,-6.39842 -3.75,-6.39844 -1.71877,2e-5 -2.95705,0.74611 -3.71484,2.23828 -0.75783,1.49221 -1.13674,3.69142 -1.13672,6.59766 l 0,14.88281 -2.20312,0 0,-17.32031 c -2e-5,-2.15623 -0.30471,-3.7617 -0.91407,-4.81641 -0.60939,-1.05467 -1.5547,-1.58201 -2.83593,-1.58203 -1.68751,2e-5 -2.91408,0.76565 -3.67969,2.29687 -0.76563,1.53127 -1.14845,4.01565 -1.14844,7.45313 l 0,13.96875 -2.22656,0 0,-25.42969 1.875,0 0.1875,3.53906 0.21094,0 c 1.01561,-2.68747 2.74217,-4.03122 5.17968,-4.03125 1.40624,3e-5 2.51561,0.37503 3.32813,1.125 0.81248,0.75003 1.39842,1.84378 1.75781,3.28125 0.60936,-1.56247 1.35936,-2.68747 2.25,-3.375 0.89061,-0.68747 2.04685,-1.03122 3.46875,-1.03125 1.92185,3e-5 3.3281,0.73831 4.21875,2.21485 0.8906,1.47658 1.33591,3.83986 1.33594,7.08984 l 0,16.61719 z"
         id="path3404"
         inkscape:connector-curvature="0" />
    </g>
  </g>
</svg>
