<?xml version="1.0" encoding="utf-8"?>
<!-- Generator: Adobe Illustrator 18.0.0, SVG Export Plug-In . SVG Version: 6.00 Build 0)  -->
<!DOCTYPE svg PUBLIC "-//W3C//DTD SVG 1.1//EN" "http://www.w3.org/Graphics/SVG/1.1/DTD/svg11.dtd">
<svg version="1.1" id="Layer_1" xmlns="http://www.w3.org/2000/svg" xmlns:xlink="http://www.w3.org/1999/xlink" x="0px" y="0px"
	 viewBox="0 0 1024 153.3" enable-background="new 0 0 1024 153.3" xml:space="preserve">
<g>
	<g>
		<circle fill="#82BC00" cx="68.7" cy="70.2" r="25.3"/>
		<g>
			<path fill="#82BC00" d="M68.7,29.3c11.3,0,21.5,4.6,28.9,12l17.9-17.9C103.6,11.4,87,4,68.7,4C32.1,4,2.5,33.7,2.5,70.2h25.3
				C27.8,47.6,46.1,29.3,68.7,29.3z"/>
			<path fill="#82BC00" d="M109.7,70.2c0,22.6-18.3,40.9-40.9,40.9c-11.3,0-21.5-4.6-29-12l-17.9,17.9c12,12,28.5,19.4,46.8,19.4
				c36.6,0,66.3-29.7,66.3-66.2H109.7z"/>
		</g>
		<g>
			<path fill="#333333" d="M192.5,41.3c-5,0-10.2,2.7-10.2,8.1c0,6.9,8.5,8.5,14.6,10.6c13.3,4.6,29.7,10.8,29.7,31.4
				c0,20.2-19.4,29.1-36.7,29.1c-14.8,0-26.4-5.9-36.8-16.4l14.2-13.9c7.3,6.7,12.8,12,22.9,12c6.6,0,13.2-3.1,13.2-10.4
				c0-7.4-8.8-10.4-17.3-13.5c-12.5-4.7-25.6-10.6-25.6-28.8c0-17.9,16-26.4,31.8-26.4c12.4,0,22.1,4,32.1,11.6l-12.3,15.4
				C206.5,45.5,199.8,41.3,192.5,41.3z"/>
			<path fill="#333333" d="M261.4,64.5v26.4c0,2.3,0,4.3,0.4,6.5c0.5,3,1.9,4.9,5,4.9c3.1,0,5.3-0.7,7.8-2l6.9,15.9
				c-5.1,3-12.5,4.4-18.6,4.4c-11.7,0-19.9-6.6-22.4-16.8c-0.8-3.5-0.9-7.4-0.9-11.2v-28h-8.2V46.7h8.2l4-15.5h17.8v15.5h17.8v17.8
				H261.4z"/>
			<path fill="#333333" d="M335.4,118.9l-2-5.7c-4.3,5.5-11.9,7.3-19,7.3c-13.5,0-26.1-8.6-26.1-23.3c0-17.5,16.6-23,31.3-23
				c4,0,8.4,0.5,12.4,1.5v-0.5c0-8.4-3.2-13.6-13.2-13.6c-8.1,0-15,3-21.4,6.2l-5.7-15c9.8-4.9,20.9-7.7,31.9-7.7
				c19.8,0,30.2,11.7,30.2,30.6v43.3H335.4z M331.9,87.9c-3.1-0.7-5.8-1.2-8.6-1.2c-6.6,0-13.7,2.8-13.7,10.5c0,5.4,4.7,8.8,9.8,8.8
				c5.1,0,8.9-1.9,12.5-5.3V87.9z"/>
			<path fill="#333333" d="M390.5,64.5v26.4c0,2.3,0,4.3,0.4,6.5c0.5,3,1.9,4.9,5,4.9s5.3-0.7,7.8-2l6.9,15.9
				c-5.1,3-12.5,4.4-18.6,4.4c-11.7,0-19.9-6.6-22.4-16.8c-0.8-3.5-0.9-7.4-0.9-11.2v-28h-8.2V46.7h8.2l4-15.5h17.8v15.5h17.8v17.8
				H390.5z"/>
			<path fill="#333333" d="M468.8,118.9l-1.9-9.3c-6.1,8.1-14.7,10.9-22.1,10.9c-7,0-13.9-3.8-18.6-9.6c-5.9-7.5-6.5-16.7-6.5-26.8
				V46.7h21.8v36.7c0,4.7,0,10.2,1.6,13.9c1.6,3.6,5,5,8.6,5c4.7,0,10.5-2.6,13.5-7.5v-48h21.8v72.2H468.8z"/>
			<path fill="#333333" d="M542.1,68.1c-3.8-3.5-8.5-6.2-14.2-6.2c-2.7,0-5.8,1.3-5.8,3.9c0,4.2,4.9,6.5,10.7,8.9
				c9.2,3.8,21,8.2,21,22.4c0,15.9-14,23.5-28.3,23.5c-11.7,0-21.8-4.6-30.6-12.8l11.9-12.9c5.7,5.4,10.1,8.9,17.5,8.9
				c2.8,0,7.8-1.3,7.8-4.7c0-4.7-6.5-6.9-13.5-10.1c-8.4-3.8-17.4-8.9-17.4-21.4c0-14.8,13.1-22.4,26.7-22.4
				c10,0,18.9,3.4,25.9,10.1L542.1,68.1z"/>
			<path fill="#333333" d="M597,24.6c16.3,0,36.1,8,36.1,29.7c0,22-19.7,29.9-36.1,29.9h-9v34.8h-21.8V24.6H597z M587.9,66.1h5.9
				c9.3,0,16-3,16-11.5c0-7.4-5.4-12-13.5-12h-8.5V66.1z"/>
			<path fill="#333333" d="M684.8,118.9l-2-5.7c-4.3,5.5-11.9,7.3-19,7.3c-13.5,0-26.1-8.6-26.1-23.3c0-17.5,16.6-23,31.3-23
				c4,0,8.4,0.5,12.4,1.5v-0.5c0-8.4-3.2-13.6-13.2-13.6c-8.1,0-15,3-21.4,6.2l-5.7-15c9.8-4.9,20.9-7.7,31.9-7.7
				c19.8,0,30.2,11.7,30.2,30.6v43.3H684.8z M681.3,87.9c-3.1-0.7-5.8-1.2-8.6-1.2c-6.6,0-13.7,2.8-13.7,10.5c0,5.4,4.7,8.8,9.8,8.8
				c5.1,0,8.9-1.9,12.5-5.3V87.9z"/>
			<path fill="#333333" d="M787.7,115.6c0,7.8-1.8,14.2-4.9,19.3c-6.3,10.5-18.5,15.4-31.7,15.4c-11.1,0-23.2-3.2-33.8-10.1l8-17.7
				c8.8,6.9,18.6,9.4,25.2,9.4c9.3,0,15.4-5.3,15.4-15.5v-5.8c-5.4,6.5-14.3,8.4-20.6,8.4c-18.6,0-32.7-16.3-32.7-37.2
				c0-20.8,14.2-36.7,32.9-36.7c7,0,16.8,2.3,21.8,10.4l2.2-8.8h18.3V115.6z M765.8,70.3c-4.9-5.4-9.7-6.9-15.2-6.9
				c-10.9,0-16,9.6-16,18.9c0,9.7,5.9,18.3,15.8,18.3c5.5,0,11.1-1.6,15.5-8.1V70.3z"/>
			<path fill="#333333" d="M833.8,120.6c-21.4,0-36.8-14.7-36.8-36.7c0-22,15.9-38.8,36.9-38.8c20.4,0,35.4,14,35.4,33.3
				c0,3-0.4,6.5-0.9,9.8h-49.3c1.5,9,7.3,15.1,16.2,15.1c9.3,0,13.2-3.9,17.9-10.4l14,9.6C858.4,114.6,849.5,120.6,833.8,120.6z
				 M847.2,73.9c-0.4-8.1-5.8-12.1-12.7-12.1c-8.5,0-12.8,5-14.7,12.1H847.2z"/>
		</g>
	</g>
	<g>
		<path fill="#333333" d="M880.1,120.6V98.8h23v21.8H880.1z"/>
		<path fill="#333333" d="M916.9,40V22.8h21.8V40H916.9z M916.9,120.6v-72h21.8v72H916.9z"/>
		<path fill="#333333" d="M1021.7,84.6c0,21.2-15.7,37.6-38,37.6c-22.3,0-38-16.4-38-37.6s15.7-37.6,38-37.6
			C1006,47,1021.7,63.4,1021.7,84.6z M983.7,65.2c-9.7,0-16,8.3-16,19.3s6.3,19.3,16,19.3c9.7,0,16-8.3,16-19.3
			S993.4,65.2,983.7,65.2z"/>
	</g>
</g>
</svg>
