<svg id="Layer_1" data-name="Layer 1" xmlns="http://www.w3.org/2000/svg" viewBox="0 0 511.31 81.74"><defs><style>.cls-1{fill:#0a6;}</style></defs><path d="M11.62,44.12V23H28.24V39.79c0,4.41,2,6.79,8,6.79,5.64,0,10.12-3.4,10.12-9.25V23H62.93v35.7H46.31c.14-2.24.21-6.43.21-10h-.14C44.21,55,39.22,59.37,28.68,59.37,16.68,59.37,11.62,52.58,11.62,44.12Z"/><path d="M68.34,23H85L84.74,30h.15c2-4.91,6.93-7.8,15.24-7.8,13.52,0,20.31,6.94,20.31,17.77,0,13-8,19.37-20.52,19.37-8.17,0-12.8-3-15.18-6.86h-.07c.07,1.73.29,5.05.29,6.93V73H68.34Zm35.48,17.56c0-4.62-2.75-7.44-9-7.44s-9.9,3-9.9,8.16V42c.21,3.61,3.54,6.5,10,6.5C101.07,48.53,103.82,46,103.82,40.51Z"/><path d="M128.09,45V34.3h-6V23H127c2.24,0,3.1-1,3.46-3.54l.65-4.55h13.59V23h16.11V34.3H144.71v9.46c0,3.47,1.95,4.48,8.38,4.48a62.14,62.14,0,0,0,7.3-.5V58.43a57.3,57.3,0,0,1-11.34.94C133.15,59.37,128.09,53.3,128.09,45Z"/><path d="M166,8.79h16.62V19H166ZM166,23h16.62v35.7H166Z"/><path d="M188.13,23h16.62l-.22,10.12h.07c2.1-6.14,6.8-10.84,15.4-10.84,9,0,13.58,3.9,14.88,10.91H235c1.88-6.29,7.23-10.91,15.47-10.91,10.91,0,15,5.78,15,14.74V58.65H248.83V41.31c0-4.2-1.66-6.29-6.22-6.29-3.61,0-7.51,2.31-7.51,7.8V58.65H218.48V41.31c0-4.2-1.73-6.29-6.22-6.29-3.68,0-7.51,2.31-7.51,7.8V58.65H188.13Z"/><path d="M318.19,43.26H286.47c.43,3.9,2.6,6.5,9.32,6.5,5.92,0,7.8-1.59,8.16-3.69h14.24c-.22,7.45-6.43,13.3-23,13.3-19.73,0-25.51-9.1-25.51-18.21,0-12.07,9.4-18.93,25.08-18.93,15.89,0,23.41,6.36,23.41,17.77Zm-14.24-7c0-2.82-1.95-5.13-8.16-5.13-5.78,0-8.24,1.88-9.11,5.71H304Z"/><path d="M344.81,41.29c0-9.85,6.66-18.09,19.94-18.09,13.45,0,18.46,7.25,18.46,14.78h-7.15C376,34,373,30.24,364.87,30.24c-8.32,0-12.24,4.85-12.24,11.05,0,5.84,3.18,11.05,11.93,11.05,8.5,0,11.56-3.66,11.62-7.6h7.16c0,7.24-5,14.63-19.08,14.63S344.81,50.08,344.81,41.29Z"/><path d="M388.59,41.36c0-9.15,5.88-18.16,20.74-18.16s20.73,9,20.73,18.16-5.75,18-20.73,18S388.59,50.58,388.59,41.36Zm33.64,0c0-5.77-3.49-11.12-12.9-11.12s-12.91,5.35-12.91,11.12,3.43,11,12.91,11S422.23,47.13,422.23,41.36Z"/><path d="M436.21,23.91H444l-.13,10.27H444c2-7.11,6.55-11,14-11,8.13,0,12.54,4.29,13.64,10.91h.06c1.65-7.32,6.79-10.91,14.19-10.91,9.54,0,13.82,5.77,13.82,15.06V58.67h-7.83V40.58c0-6.47-2.51-10-8.87-10-5.08,0-11.13,3.52-11.13,12.32V58.67H464V40.58c0-6.47-2.57-10-8.93-10C450,30.59,444,34.53,444,42.91V58.67h-7.83Z"/><path class="cls-1" d="M327.42,50.66a1.07,1.07,0,0,1,.74-.3h3.41l5.9-5.91a8.6,8.6,0,0,0-13.73,9.89Z"/><path class="cls-1" d="M332.74,52.15a1.07,1.07,0,0,1-.74.3h-3.4l-3.71,3.72a8.61,8.61,0,0,0,13.92-10.09Z"/></svg>